  0
SECTION
  2
HEADER
  9
$ACADVER
  1
AC1014
  9
$HANDSEED
  5
FFFF
  9
$MEASUREMENT
 70
     1
  0
ENDSEC
  0
SECTION
  2
TABLES
  0
TABLE
  2
VPORT
  5
8
330
0
100
AcDbSymbolTable
 70
     4
  0
VPORT
  5
2E
330
8
100
AcDbSymbolTableRecord
100
AcDbViewportTableRecord
  2
*ACTIVE
 70
     0
 10
0.0
 20
0.0
 11
1.0
 21
1.0
 12
210.0
 22
148.5
 13
0.0
 23
0.0
 14
10.0
 24
10.0
 15
10.0
 25
10.0
 16
0.0
 26
0.0
 36
1.0
 17
0.0
 27
0.0
 37
0.0
 40
341.0
 41
1.24
 42
50.0
 43
0.0
 44
0.0
 50
0.0
 51
0.0
 71
     0
 72
   100
 73
     1
 74
     3
 75
     0
 76
     0
 77
     0
 78
     0
  0
ENDTAB
  0
TABLE
  2
LTYPE
  5
5
330
0
100
AcDbSymbolTable
 70
     1
  0
LTYPE
  5
14
330
5
100
AcDbSymbolTableRecord
100
AcDbLinetypeTableRecord
  2
BYBLOCK
 70
     0
  3

 72
    65
 73
     0
 40
0.0
  0
LTYPE
  5
15
330
5
100
AcDbSymbolTableRecord
100
AcDbLinetypeTableRecord
  2
BYLAYER
 70
     0
  3

 72
    65
 73
     0
 40
0.0
  0
LTYPE
  5
16
330
5
100
AcDbSymbolTableRecord
100
AcDbLinetypeTableRecord
  2
CONTINUOUS
 70
     0
  3
Solid line
 72
    65
 73
     0
 40
0.0
  0
ENDTAB
  0
TABLE
  2
LAYER
  5
2
100
AcDbSymbolTable
 70
5
  0
LAYER
  5
50
100
AcDbSymbolTableRecord
100
AcDbLayerTableRecord
  2
0
 70
0
  6
CONTINUOUS
  0
LAYER
  5
51
100
AcDbSymbolTableRecord
100
AcDbLayerTableRecord
  2
panel
 70
0
  6
CONTINUOUS
  0
LAYER
  5
52
100
AcDbSymbolTableRecord
100
AcDbLayerTableRecord
  2
logo
 70
0
  6
CONTINUOUS
  0
LAYER
  5
53
100
AcDbSymbolTableRecord
100
AcDbLayerTableRecord
  2
graphic
 70
0
  6
CONTINUOUS
  0
LAYER
  5
54
100
AcDbSymbolTableRecord
100
AcDbLayerTableRecord
  2
text
 70
0
  6
CONTINUOUS
  0
ENDTAB
  0
TABLE
  2
STYLE
  5
3
330
0
100
AcDbSymbolTable
 70
     1
  0
STYLE
  5
11
330
3
100
AcDbSymbolTableRecord
100
AcDbTextStyleTableRecord
  2
STANDARD
 70
     0
 40
0.0
 41
1.0
 50
0.0
 71
     0
 42
2.5
  3
txt
  4

  0
ENDTAB
  0
TABLE
  2
VIEW
  5
6
330
0
100
AcDbSymbolTable
 70
     0
  0
ENDTAB
  0
TABLE
  2
UCS
  5
7
330
0
100
AcDbSymbolTable
 70
     0
  0
ENDTAB
  0
TABLE
  2
APPID
  5
9
330
0
100
AcDbSymbolTable
 70
     2
  0
APPID
  5
12
330
9
100
AcDbSymbolTableRecord
100
AcDbRegAppTableRecord
  2
ACAD
 70
     0
  0
ENDTAB
  0
TABLE
  2
DIMSTYLE
  5
A
330
0
100
AcDbSymbolTable
 70
     1
  0
DIMSTYLE
105
27
330
A
100
AcDbSymbolTableRecord
100
AcDbDimStyleTableRecord
  2
ISO-25
 70
     0
  3

  4

  5

  6

  7

 40
1.0
 41
2.5
 42
0.625
 43
3.75
 44
1.25
 45
0.0
 46
0.0
 47
0.0
 48
0.0
140
2.5
141
2.5
142
0.0
143
0.03937007874016
144
1.0
145
0.0
146
1.0
147
0.625
 71
     0
 72
     0
 73
     0
 74
     0
 75
     0
 76
     0
 77
     1
 78
     8
170
     0
171
     3
172
     1
173
     0
174
     0
175
     0
176
     0
177
     0
178
     0
270
     2
271
     2
272
     2
273
     2
274
     3
340
11
275
     0
280
     0
281
     0
282
     0
283
     0
284
     8
285
     0
286
     0
287
     3
288
     0
  0
ENDTAB
  0
TABLE
  2
BLOCK_RECORD
  5
1
330
0
100
AcDbSymbolTable
 70
     1
  0
BLOCK_RECORD
  5
1F
330
1
100
AcDbSymbolTableRecord
100
AcDbBlockTableRecord
  2
*MODEL_SPACE
  0
BLOCK_RECORD
  5
1B
330
1
100
AcDbSymbolTableRecord
100
AcDbBlockTableRecord
  2
*PAPER_SPACE
  0
ENDTAB
  0
ENDSEC
  0
SECTION
  2
BLOCKS
  0
BLOCK
  5
20
330
1F
100
AcDbEntity
  8
0
100
AcDbBlockBegin
  2
*MODEL_SPACE
 70
     0
 10
0.0
 20
0.0
 30
0.0
  3
*MODEL_SPACE
  1

  0
ENDBLK
  5
21
330
1F
100
AcDbEntity
  8
0
100
AcDbBlockEnd
  0
BLOCK
  5
1C
330
1B
100
AcDbEntity
 67
     1
  8
0
100
AcDbBlockBegin
  2
*PAPER_SPACE
  1

  0
ENDBLK
  5
1D
330
1B
100
AcDbEntity
 67
     1
  8
0
100
AcDbBlockEnd
  0
ENDSEC
  0
SECTION
  2
ENTITIES
  0
LINE
  5
100
100
AcDbEntity
  8
panel
 62
7
100
AcDbLine
 10
0.050195
 20
0.049849
 30
0.0
 11
20.270483
 21
0.049849
 31
0.0
  0
LINE
  5
101
100
AcDbEntity
  8
panel
 62
7
100
AcDbLine
 10
0.050195
 20
128.450048
 30
0.0
 11
0.050195
 21
0.049849
 31
0.0
  0
LINE
  5
102
100
AcDbEntity
  8
panel
 62
7
100
AcDbLine
 10
20.270483
 20
0.049849
 30
0.0
 11
20.270483
 21
128.450048
 31
0.0
  0
LINE
  5
103
100
AcDbEntity
  8
panel
 62
7
100
AcDbLine
 10
20.270483
 20
128.450048
 30
0.0
 11
0.050195
 21
128.450048
 31
0.0
  0
SPLINE
  5
104
100
AcDbEntity
  8
panel
 62
7
100
AcDbSpline
 70
8
 71
3
 72
8
 73
4
 74
0
 40
0
 40
0
 40
0
 40
0
 40
1
 40
1
 40
1
 40
1
 10
3.035434
 20
4.596334
 30
0.0
 10
2.184203
 20
4.595469
 30
0.0
 10
1.494600
 20
3.902303
 30
0.0
 10
1.494600
 20
3.047538
 30
0.0
  0
SPLINE
  5
105
100
AcDbEntity
  8
panel
 62
7
100
AcDbSpline
 70
8
 71
3
 72
8
 73
4
 74
0
 40
0
 40
0
 40
0
 40
0
 40
1
 40
1
 40
1
 40
1
 10
1.494600
 20
3.047538
 30
0.0
 10
1.494600
 20
2.192773
 30
0.0
 10
2.184203
 20
1.499606
 30
0.0
 10
3.035434
 20
1.498741
 30
0.0
  0
LINE
  5
106
100
AcDbEntity
  8
panel
 62
7
100
AcDbLine
 10
3.035320
 20
1.498641
 30
0.0
 11
6.020709
 21
1.498641
 31
0.0
  0
SPLINE
  5
107
100
AcDbEntity
  8
panel
 62
7
100
AcDbSpline
 70
8
 71
3
 72
8
 73
4
 74
0
 40
0
 40
0
 40
0
 40
0
 40
1
 40
1
 40
1
 40
1
 10
6.020712
 20
1.498741
 30
0.0
 10
6.871942
 20
1.499606
 30
0.0
 10
7.561545
 20
2.192773
 30
0.0
 10
7.561545
 20
3.047538
 30
0.0
  0
SPLINE
  5
108
100
AcDbEntity
  8
panel
 62
7
100
AcDbSpline
 70
8
 71
3
 72
8
 73
4
 74
0
 40
0
 40
0
 40
0
 40
0
 40
1
 40
1
 40
1
 40
1
 10
7.561545
 20
3.047538
 30
0.0
 10
7.561545
 20
3.902303
 30
0.0
 10
6.871942
 20
4.595469
 30
0.0
 10
6.020712
 20
4.596334
 30
0.0
  0
LINE
  5
109
100
AcDbEntity
  8
panel
 62
7
100
AcDbLine
 10
3.035320
 20
4.596358
 30
0.0
 11
6.020709
 21
4.596358
 31
0.0
  0
SPLINE
  5
10a
100
AcDbEntity
  8
panel
 62
7
100
AcDbSpline
 70
8
 71
3
 72
8
 73
4
 74
0
 40
0
 40
0
 40
0
 40
0
 40
1
 40
1
 40
1
 40
1
 10
13.294839
 20
18.485549
 30
0.0
 10
13.293836
 20
20.223183
 30
0.0
 10
11.890748
 20
21.631280
 30
0.0
 10
10.160297
 20
21.631280
 30
0.0
  0
SPLINE
  5
10b
100
AcDbEntity
  8
panel
 62
7
100
AcDbSpline
 70
8
 71
3
 72
8
 73
4
 74
0
 40
0
 40
0
 40
0
 40
0
 40
1
 40
1
 40
1
 40
1
 10
10.160297
 20
21.631280
 30
0.0
 10
8.429846
 20
21.631280
 30
0.0
 10
7.026758
 20
20.223183
 30
0.0
 10
7.025755
 20
18.485549
 30
0.0
  0
SPLINE
  5
10c
100
AcDbEntity
  8
panel
 62
7
100
AcDbSpline
 70
8
 71
3
 72
8
 73
4
 74
0
 40
0
 40
0
 40
0
 40
0
 40
1
 40
1
 40
1
 40
1
 10
7.025755
 20
18.485549
 30
0.0
 10
7.026758
 20
16.747915
 30
0.0
 10
8.429846
 20
15.339818
 30
0.0
 10
10.160297
 20
15.339818
 30
0.0
  0
SPLINE
  5
10d
100
AcDbEntity
  8
panel
 62
7
100
AcDbSpline
 70
8
 71
3
 72
8
 73
4
 74
0
 40
0
 40
0
 40
0
 40
0
 40
1
 40
1
 40
1
 40
1
 10
10.160297
 20
15.339818
 30
0.0
 10
11.890748
 20
15.339818
 30
0.0
 10
13.293836
 20
16.747915
 30
0.0
 10
13.294839
 20
18.485549
 30
0.0
  0
LINE
  5
10e
100
AcDbEntity
  8
panel
 62
7
100
AcDbLine
 10
13.294839
 20
18.485549
 30
0.0
 11
13.294839
 21
18.485549
 31
0.0
  0
SPLINE
  5
10f
100
AcDbEntity
  8
panel
 62
7
100
AcDbSpline
 70
8
 71
3
 72
8
 73
4
 74
0
 40
0
 40
0
 40
0
 40
0
 40
1
 40
1
 40
1
 40
1
 10
13.294839
 20
29.477011
 30
0.0
 10
13.293836
 20
31.214645
 30
0.0
 10
11.890748
 20
32.622742
 30
0.0
 10
10.160297
 20
32.622742
 30
0.0
  0
SPLINE
  5
110
100
AcDbEntity
  8
panel
 62
7
100
AcDbSpline
 70
8
 71
3
 72
8
 73
4
 74
0
 40
0
 40
0
 40
0
 40
0
 40
1
 40
1
 40
1
 40
1
 10
10.160297
 20
32.622742
 30
0.0
 10
8.429846
 20
32.622742
 30
0.0
 10
7.026758
 20
31.214645
 30
0.0
 10
7.025755
 20
29.477011
 30
0.0
  0
SPLINE
  5
111
100
AcDbEntity
  8
panel
 62
7
100
AcDbSpline
 70
8
 71
3
 72
8
 73
4
 74
0
 40
0
 40
0
 40
0
 40
0
 40
1
 40
1
 40
1
 40
1
 10
7.025755
 20
29.477011
 30
0.0
 10
7.026758
 20
27.739377
 30
0.0
 10
8.429846
 20
26.331280
 30
0.0
 10
10.160297
 20
26.331280
 30
0.0
  0
SPLINE
  5
112
100
AcDbEntity
  8
panel
 62
7
100
AcDbSpline
 70
8
 71
3
 72
8
 73
4
 74
0
 40
0
 40
0
 40
0
 40
0
 40
1
 40
1
 40
1
 40
1
 10
10.160297
 20
26.331280
 30
0.0
 10
11.890748
 20
26.331280
 30
0.0
 10
13.293836
 20
27.739377
 30
0.0
 10
13.294839
 20
29.477011
 30
0.0
  0
LINE
  5
113
100
AcDbEntity
  8
panel
 62
7
100
AcDbLine
 10
13.294839
 20
29.477011
 30
0.0
 11
13.294839
 21
29.477011
 31
0.0
  0
SPLINE
  5
114
100
AcDbEntity
  8
panel
 62
7
100
AcDbSpline
 70
8
 71
3
 72
8
 73
4
 74
0
 40
0
 40
0
 40
0
 40
0
 40
1
 40
1
 40
1
 40
1
 10
14.299885
 20
4.596334
 30
0.0
 10
13.448654
 20
4.595469
 30
0.0
 10
12.759052
 20
3.902303
 30
0.0
 10
12.759052
 20
3.047538
 30
0.0
  0
SPLINE
  5
115
100
AcDbEntity
  8
panel
 62
7
100
AcDbSpline
 70
8
 71
3
 72
8
 73
4
 74
0
 40
0
 40
0
 40
0
 40
0
 40
1
 40
1
 40
1
 40
1
 10
12.759052
 20
3.047538
 30
0.0
 10
12.759052
 20
2.192773
 30
0.0
 10
13.448654
 20
1.499606
 30
0.0
 10
14.299885
 20
1.498741
 30
0.0
  0
LINE
  5
116
100
AcDbEntity
  8
panel
 62
7
100
AcDbLine
 10
14.299969
 20
1.498641
 30
0.0
 11
17.285094
 21
1.498641
 31
0.0
  0
SPLINE
  5
117
100
AcDbEntity
  8
panel
 62
7
100
AcDbSpline
 70
8
 71
3
 72
8
 73
4
 74
0
 40
0
 40
0
 40
0
 40
0
 40
1
 40
1
 40
1
 40
1
 10
17.285163
 20
1.498741
 30
0.0
 10
18.136394
 20
1.499606
 30
0.0
 10
18.825996
 20
2.192773
 30
0.0
 10
18.825996
 20
3.047538
 30
0.0
  0
SPLINE
  5
118
100
AcDbEntity
  8
panel
 62
7
100
AcDbSpline
 70
8
 71
3
 72
8
 73
4
 74
0
 40
0
 40
0
 40
0
 40
0
 40
1
 40
1
 40
1
 40
1
 10
18.825996
 20
3.047538
 30
0.0
 10
18.825996
 20
3.902303
 30
0.0
 10
18.136394
 20
4.595469
 30
0.0
 10
17.285163
 20
4.596334
 30
0.0
  0
LINE
  5
119
100
AcDbEntity
  8
panel
 62
7
100
AcDbLine
 10
14.299969
 20
4.596358
 30
0.0
 11
17.285094
 21
4.596358
 31
0.0
  0
SPLINE
  5
11a
100
AcDbEntity
  8
panel
 62
7
100
AcDbSpline
 70
8
 71
3
 72
8
 73
4
 74
0
 40
0
 40
0
 40
0
 40
0
 40
1
 40
1
 40
1
 40
1
 10
13.294839
 20
40.468474
 30
0.0
 10
13.293836
 20
42.206108
 30
0.0
 10
11.890748
 20
43.614205
 30
0.0
 10
10.160297
 20
43.614205
 30
0.0
  0
SPLINE
  5
11b
100
AcDbEntity
  8
panel
 62
7
100
AcDbSpline
 70
8
 71
3
 72
8
 73
4
 74
0
 40
0
 40
0
 40
0
 40
0
 40
1
 40
1
 40
1
 40
1
 10
10.160297
 20
43.614205
 30
0.0
 10
8.429846
 20
43.614205
 30
0.0
 10
7.026758
 20
42.206108
 30
0.0
 10
7.025755
 20
40.468474
 30
0.0
  0
SPLINE
  5
11c
100
AcDbEntity
  8
panel
 62
7
100
AcDbSpline
 70
8
 71
3
 72
8
 73
4
 74
0
 40
0
 40
0
 40
0
 40
0
 40
1
 40
1
 40
1
 40
1
 10
7.025755
 20
40.468474
 30
0.0
 10
7.026758
 20
38.730840
 30
0.0
 10
8.429846
 20
37.322743
 30
0.0
 10
10.160297
 20
37.322743
 30
0.0
  0
SPLINE
  5
11d
100
AcDbEntity
  8
panel
 62
7
100
AcDbSpline
 70
8
 71
3
 72
8
 73
4
 74
0
 40
0
 40
0
 40
0
 40
0
 40
1
 40
1
 40
1
 40
1
 10
10.160297
 20
37.322743
 30
0.0
 10
11.890748
 20
37.322743
 30
0.0
 10
13.293836
 20
38.730840
 30
0.0
 10
13.294839
 20
40.468474
 30
0.0
  0
LINE
  5
11e
100
AcDbEntity
  8
panel
 62
7
100
AcDbLine
 10
13.294839
 20
40.468474
 30
0.0
 11
13.294839
 21
40.468474
 31
0.0
  0
SPLINE
  5
11f
100
AcDbEntity
  8
panel
 62
7
100
AcDbSpline
 70
8
 71
3
 72
8
 73
4
 74
0
 40
0
 40
0
 40
0
 40
0
 40
1
 40
1
 40
1
 40
1
 10
11.702692
 20
47.762808
 30
0.0
 10
11.702692
 20
48.316140
 30
0.0
 10
11.408713
 20
48.827440
 30
0.0
 10
10.931494
 20
49.104106
 30
0.0
  0
SPLINE
  5
120
100
AcDbEntity
  8
panel
 62
7
100
AcDbSpline
 70
8
 71
3
 72
8
 73
4
 74
0
 40
0
 40
0
 40
0
 40
0
 40
1
 40
1
 40
1
 40
1
 10
10.931494
 20
49.104106
 30
0.0
 10
10.454276
 20
49.380772
 30
0.0
 10
9.866318
 20
49.380772
 30
0.0
 10
9.389100
 20
49.104106
 30
0.0
  0
SPLINE
  5
121
100
AcDbEntity
  8
panel
 62
7
100
AcDbSpline
 70
8
 71
3
 72
8
 73
4
 74
0
 40
0
 40
0
 40
0
 40
0
 40
1
 40
1
 40
1
 40
1
 10
9.389100
 20
49.104106
 30
0.0
 10
8.911881
 20
48.827440
 30
0.0
 10
8.617902
 20
48.316140
 30
0.0
 10
8.617902
 20
47.762808
 30
0.0
  0
SPLINE
  5
122
100
AcDbEntity
  8
panel
 62
7
100
AcDbSpline
 70
8
 71
3
 72
8
 73
4
 74
0
 40
0
 40
0
 40
0
 40
0
 40
1
 40
1
 40
1
 40
1
 10
8.617902
 20
47.762808
 30
0.0
 10
8.617902
 20
46.907431
 30
0.0
 10
9.308456
 20
46.214011
 30
0.0
 10
10.160297
 20
46.214011
 30
0.0
  0
SPLINE
  5
123
100
AcDbEntity
  8
panel
 62
7
100
AcDbSpline
 70
8
 71
3
 72
8
 73
4
 74
0
 40
0
 40
0
 40
0
 40
0
 40
1
 40
1
 40
1
 40
1
 10
10.160297
 20
46.214011
 30
0.0
 10
11.012138
 20
46.214011
 30
0.0
 10
11.702691
 20
46.907431
 30
0.0
 10
11.702692
 20
47.762808
 30
0.0
  0
LINE
  5
124
100
AcDbEntity
  8
panel
 62
7
100
AcDbLine
 10
11.702692
 20
47.762808
 30
0.0
 11
11.702692
 21
47.762808
 31
0.0
  0
SPLINE
  5
125
100
AcDbEntity
  8
panel
 62
7
100
AcDbSpline
 70
8
 71
3
 72
8
 73
4
 74
0
 40
0
 40
0
 40
0
 40
0
 40
1
 40
1
 40
1
 40
1
 10
3.035434
 20
127.001268
 30
0.0
 10
2.484389
 20
127.001268
 30
0.0
 10
1.975203
 20
126.706068
 30
0.0
 10
1.699681
 20
126.226869
 30
0.0
  0
SPLINE
  5
126
100
AcDbEntity
  8
panel
 62
7
100
AcDbSpline
 70
8
 71
3
 72
8
 73
4
 74
0
 40
0
 40
0
 40
0
 40
0
 40
1
 40
1
 40
1
 40
1
 10
1.699681
 20
126.226869
 30
0.0
 10
1.424158
 20
125.747669
 30
0.0
 10
1.424158
 20
125.157271
 30
0.0
 10
1.699681
 20
124.678071
 30
0.0
  0
SPLINE
  5
127
100
AcDbEntity
  8
panel
 62
7
100
AcDbSpline
 70
8
 71
3
 72
8
 73
4
 74
0
 40
0
 40
0
 40
0
 40
0
 40
1
 40
1
 40
1
 40
1
 10
1.699681
 20
124.678071
 30
0.0
 10
1.975203
 20
124.198871
 30
0.0
 10
2.484389
 20
123.903672
 30
0.0
 10
3.035434
 20
123.903672
 30
0.0
  0
LINE
  5
128
100
AcDbEntity
  8
panel
 62
7
100
AcDbLine
 10
3.035320
 20
123.903804
 30
0.0
 11
6.020709
 21
123.903804
 31
0.0
  0
SPLINE
  5
129
100
AcDbEntity
  8
panel
 62
7
100
AcDbSpline
 70
8
 71
3
 72
8
 73
4
 74
0
 40
0
 40
0
 40
0
 40
0
 40
1
 40
1
 40
1
 40
1
 10
6.020712
 20
123.903672
 30
0.0
 10
6.571756
 20
123.903672
 30
0.0
 10
7.080942
 20
124.198871
 30
0.0
 10
7.356465
 20
124.678071
 30
0.0
  0
SPLINE
  5
12a
100
AcDbEntity
  8
panel
 62
7
100
AcDbSpline
 70
8
 71
3
 72
8
 73
4
 74
0
 40
0
 40
0
 40
0
 40
0
 40
1
 40
1
 40
1
 40
1
 10
7.356465
 20
124.678071
 30
0.0
 10
7.631987
 20
125.157271
 30
0.0
 10
7.631987
 20
125.747669
 30
0.0
 10
7.356465
 20
126.226869
 30
0.0
  0
SPLINE
  5
12b
100
AcDbEntity
  8
panel
 62
7
100
AcDbSpline
 70
8
 71
3
 72
8
 73
4
 74
0
 40
0
 40
0
 40
0
 40
0
 40
1
 40
1
 40
1
 40
1
 10
7.356465
 20
126.226869
 30
0.0
 10
7.080942
 20
126.706068
 30
0.0
 10
6.571756
 20
127.001268
 30
0.0
 10
6.020712
 20
127.001268
 30
0.0
  0
LINE
  5
12c
100
AcDbEntity
  8
panel
 62
7
100
AcDbLine
 10
3.035320
 20
127.001257
 30
0.0
 11
6.020709
 21
127.001257
 31
0.0
  0
SPLINE
  5
12d
100
AcDbEntity
  8
panel
 62
7
100
AcDbSpline
 70
8
 71
3
 72
8
 73
4
 74
0
 40
0
 40
0
 40
0
 40
0
 40
1
 40
1
 40
1
 40
1
 10
13.742632
 20
108.915314
 30
0.0
 10
13.742632
 20
110.901996
 30
0.0
 10
12.138766
 20
112.512520
 30
0.0
 10
10.160297
 20
112.512520
 30
0.0
  0
SPLINE
  5
12e
100
AcDbEntity
  8
panel
 62
7
100
AcDbSpline
 70
8
 71
3
 72
8
 73
4
 74
0
 40
0
 40
0
 40
0
 40
0
 40
1
 40
1
 40
1
 40
1
 10
10.160297
 20
112.512520
 30
0.0
 10
8.181828
 20
112.512520
 30
0.0
 10
6.577962
 20
110.901996
 30
0.0
 10
6.577962
 20
108.915314
 30
0.0
  0
SPLINE
  5
12f
100
AcDbEntity
  8
panel
 62
7
100
AcDbSpline
 70
8
 71
3
 72
8
 73
4
 74
0
 40
0
 40
0
 40
0
 40
0
 40
1
 40
1
 40
1
 40
1
 10
6.577962
 20
108.915314
 30
0.0
 10
6.577962
 20
107.630156
 30
0.0
 10
7.260751
 20
106.442621
 30
0.0
 10
8.369130
 20
105.800042
 30
0.0
  0
SPLINE
  5
130
100
AcDbEntity
  8
panel
 62
7
100
AcDbSpline
 70
8
 71
3
 72
8
 73
4
 74
0
 40
0
 40
0
 40
0
 40
0
 40
1
 40
1
 40
1
 40
1
 10
8.369130
 20
105.800042
 30
0.0
 10
9.477508
 20
105.157463
 30
0.0
 10
10.843086
 20
105.157463
 30
0.0
 10
11.951464
 20
105.800042
 30
0.0
  0
SPLINE
  5
131
100
AcDbEntity
  8
panel
 62
7
100
AcDbSpline
 70
8
 71
3
 72
8
 73
4
 74
0
 40
0
 40
0
 40
0
 40
0
 40
1
 40
1
 40
1
 40
1
 10
11.951464
 20
105.800042
 30
0.0
 10
13.059843
 20
106.442621
 30
0.0
 10
13.742632
 20
107.630156
 30
0.0
 10
13.742632
 20
108.915314
 30
0.0
  0
LINE
  5
132
100
AcDbEntity
  8
panel
 62
7
100
AcDbLine
 10
13.742632
 20
108.915314
 30
0.0
 11
13.742632
 21
108.915314
 31
0.0
  0
SPLINE
  5
133
100
AcDbEntity
  8
panel
 62
7
100
AcDbSpline
 70
8
 71
3
 72
8
 73
4
 74
0
 40
0
 40
0
 40
0
 40
0
 40
1
 40
1
 40
1
 40
1
 10
14.299885
 20
127.001268
 30
0.0
 10
13.748840
 20
127.001268
 30
0.0
 10
13.239654
 20
126.706068
 30
0.0
 10
12.964132
 20
126.226869
 30
0.0
  0
SPLINE
  5
134
100
AcDbEntity
  8
panel
 62
7
100
AcDbSpline
 70
8
 71
3
 72
8
 73
4
 74
0
 40
0
 40
0
 40
0
 40
0
 40
1
 40
1
 40
1
 40
1
 10
12.964132
 20
126.226869
 30
0.0
 10
12.688610
 20
125.747669
 30
0.0
 10
12.688610
 20
125.157271
 30
0.0
 10
12.964132
 20
124.678071
 30
0.0
  0
SPLINE
  5
135
100
AcDbEntity
  8
panel
 62
7
100
AcDbSpline
 70
8
 71
3
 72
8
 73
4
 74
0
 40
0
 40
0
 40
0
 40
0
 40
1
 40
1
 40
1
 40
1
 10
12.964132
 20
124.678071
 30
0.0
 10
13.239654
 20
124.198871
 30
0.0
 10
13.748840
 20
123.903672
 30
0.0
 10
14.299885
 20
123.903672
 30
0.0
  0
LINE
  5
136
100
AcDbEntity
  8
panel
 62
7
100
AcDbLine
 10
14.299969
 20
123.903804
 30
0.0
 11
17.285094
 21
123.903804
 31
0.0
  0
SPLINE
  5
137
100
AcDbEntity
  8
panel
 62
7
100
AcDbSpline
 70
8
 71
3
 72
8
 73
4
 74
0
 40
0
 40
0
 40
0
 40
0
 40
1
 40
1
 40
1
 40
1
 10
17.285163
 20
123.903672
 30
0.0
 10
17.836207
 20
123.903672
 30
0.0
 10
18.345394
 20
124.198871
 30
0.0
 10
18.620916
 20
124.678071
 30
0.0
  0
SPLINE
  5
138
100
AcDbEntity
  8
panel
 62
7
100
AcDbSpline
 70
8
 71
3
 72
8
 73
4
 74
0
 40
0
 40
0
 40
0
 40
0
 40
1
 40
1
 40
1
 40
1
 10
18.620916
 20
124.678071
 30
0.0
 10
18.896438
 20
125.157271
 30
0.0
 10
18.896438
 20
125.747669
 30
0.0
 10
18.620916
 20
126.226869
 30
0.0
  0
SPLINE
  5
139
100
AcDbEntity
  8
panel
 62
7
100
AcDbSpline
 70
8
 71
3
 72
8
 73
4
 74
0
 40
0
 40
0
 40
0
 40
0
 40
1
 40
1
 40
1
 40
1
 10
18.620916
 20
126.226869
 30
0.0
 10
18.345394
 20
126.706068
 30
0.0
 10
17.836207
 20
127.001268
 30
0.0
 10
17.285163
 20
127.001268
 30
0.0
  0
LINE
  5
13a
100
AcDbEntity
  8
panel
 62
7
100
AcDbLine
 10
14.299969
 20
127.001257
 30
0.0
 11
17.285094
 21
127.001257
 31
0.0
  0
LINE
  5
13b
100
AcDbEntity
  8
logo
 62
7
100
AcDbLine
 10
7.512721
 20
10.747070
 30
0.0
 11
7.733694
 21
10.636586
 31
0.0
  0
LINE
  5
13c
100
AcDbEntity
  8
logo
 62
7
100
AcDbLine
 10
7.733694
 20
10.636586
 30
0.0
 11
7.807351
 21
10.526101
 31
0.0
  0
LINE
  5
13d
100
AcDbEntity
  8
logo
 62
7
100
AcDbLine
 10
7.807351
 20
10.526101
 30
0.0
 11
7.881009
 21
10.305133
 31
0.0
  0
LINE
  5
13e
100
AcDbEntity
  8
logo
 62
7
100
AcDbLine
 10
7.881009
 20
10.305133
 30
0.0
 11
7.881009
 21
9.973680
 31
0.0
  0
LINE
  5
13f
100
AcDbEntity
  8
logo
 62
7
100
AcDbLine
 10
7.881009
 20
9.973680
 30
0.0
 11
7.807351
 21
9.752711
 31
0.0
  0
LINE
  5
140
100
AcDbEntity
  8
logo
 62
7
100
AcDbLine
 10
7.807351
 20
9.752711
 30
0.0
 11
7.733694
 21
9.642228
 31
0.0
  0
LINE
  5
141
100
AcDbEntity
  8
logo
 62
7
100
AcDbLine
 10
7.733694
 20
9.642228
 30
0.0
 11
7.586378
 21
9.531743
 31
0.0
  0
LINE
  5
142
100
AcDbEntity
  8
logo
 62
7
100
AcDbLine
 10
7.586378
 20
9.531743
 30
0.0
 11
6.997133
 21
9.531743
 31
0.0
  0
LINE
  5
143
100
AcDbEntity
  8
logo
 62
7
100
AcDbLine
 10
6.997133
 20
9.531743
 30
0.0
 11
6.997133
 21
11.851913
 31
0.0
  0
LINE
  5
144
100
AcDbEntity
  8
logo
 62
7
100
AcDbLine
 10
6.997133
 20
11.851913
 30
0.0
 11
7.512721
 21
11.851913
 31
0.0
  0
LINE
  5
145
100
AcDbEntity
  8
logo
 62
7
100
AcDbLine
 10
7.512721
 20
11.851913
 30
0.0
 11
7.660036
 21
11.741428
 31
0.0
  0
LINE
  5
146
100
AcDbEntity
  8
logo
 62
7
100
AcDbLine
 10
7.660036
 20
11.741428
 30
0.0
 11
7.733694
 21
11.630945
 31
0.0
  0
LINE
  5
147
100
AcDbEntity
  8
logo
 62
7
100
AcDbLine
 10
7.733694
 20
11.630945
 30
0.0
 11
7.807351
 21
11.409976
 31
0.0
  0
LINE
  5
148
100
AcDbEntity
  8
logo
 62
7
100
AcDbLine
 10
7.807351
 20
11.409976
 30
0.0
 11
7.807351
 21
11.189008
 31
0.0
  0
LINE
  5
149
100
AcDbEntity
  8
logo
 62
7
100
AcDbLine
 10
7.807351
 20
11.189008
 30
0.0
 11
7.733694
 21
10.968038
 31
0.0
  0
LINE
  5
14a
100
AcDbEntity
  8
logo
 62
7
100
AcDbLine
 10
7.733694
 20
10.968038
 30
0.0
 11
7.660036
 21
10.857555
 31
0.0
  0
LINE
  5
14b
100
AcDbEntity
  8
logo
 62
7
100
AcDbLine
 10
7.660036
 20
10.857555
 30
0.0
 11
7.512721
 21
10.747070
 31
0.0
  0
LINE
  5
14c
100
AcDbEntity
  8
logo
 62
7
100
AcDbLine
 10
7.512721
 20
10.747070
 30
0.0
 11
6.997133
 21
10.747070
 31
0.0
  0
LINE
  5
14d
100
AcDbEntity
  8
logo
 62
7
100
AcDbLine
 10
9.280474
 20
9.531743
 30
0.0
 11
8.543913
 21
9.531743
 31
0.0
  0
LINE
  5
14e
100
AcDbEntity
  8
logo
 62
7
100
AcDbLine
 10
8.543913
 20
9.531743
 30
0.0
 11
8.543913
 21
11.851913
 31
0.0
  0
LINE
  5
14f
100
AcDbEntity
  8
logo
 62
7
100
AcDbLine
 10
9.796077
 20
10.747070
 30
0.0
 11
10.311665
 21
10.747070
 31
0.0
  0
LINE
  5
150
100
AcDbEntity
  8
logo
 62
7
100
AcDbLine
 10
10.532638
 20
9.531743
 30
0.0
 11
9.796077
 21
9.531743
 31
0.0
  0
LINE
  5
151
100
AcDbEntity
  8
logo
 62
7
100
AcDbLine
 10
9.796077
 20
9.531743
 30
0.0
 11
9.796077
 21
11.851913
 31
0.0
  0
LINE
  5
152
100
AcDbEntity
  8
logo
 62
7
100
AcDbLine
 10
9.796077
 20
11.851913
 30
0.0
 11
10.532638
 21
11.851913
 31
0.0
  0
LINE
  5
153
100
AcDbEntity
  8
logo
 62
7
100
AcDbLine
 10
11.195542
 20
10.747070
 30
0.0
 11
11.711130
 21
10.747070
 31
0.0
  0
LINE
  5
154
100
AcDbEntity
  8
logo
 62
7
100
AcDbLine
 10
11.932103
 20
9.531743
 30
0.0
 11
11.195542
 21
9.531743
 31
0.0
  0
LINE
  5
155
100
AcDbEntity
  8
logo
 62
7
100
AcDbLine
 10
11.195542
 20
9.531743
 30
0.0
 11
11.195542
 21
11.851913
 31
0.0
  0
LINE
  5
156
100
AcDbEntity
  8
logo
 62
7
100
AcDbLine
 10
11.195542
 20
11.851913
 30
0.0
 11
11.932103
 21
11.851913
 31
0.0
  0
LINE
  5
157
100
AcDbEntity
  8
logo
 62
7
100
AcDbLine
 10
12.595007
 20
9.531743
 30
0.0
 11
12.595007
 21
11.851913
 31
0.0
  0
LINE
  5
158
100
AcDbEntity
  8
logo
 62
7
100
AcDbLine
 10
12.595007
 20
11.851913
 30
0.0
 11
13.184253
 21
11.851913
 31
0.0
  0
LINE
  5
159
100
AcDbEntity
  8
logo
 62
7
100
AcDbLine
 10
13.184253
 20
11.851913
 30
0.0
 11
13.331568
 21
11.741428
 31
0.0
  0
LINE
  5
15a
100
AcDbEntity
  8
logo
 62
7
100
AcDbLine
 10
13.331568
 20
11.741428
 30
0.0
 11
13.405225
 21
11.630945
 31
0.0
  0
LINE
  5
15b
100
AcDbEntity
  8
logo
 62
7
100
AcDbLine
 10
13.405225
 20
11.630945
 30
0.0
 11
13.478883
 21
11.409976
 31
0.0
  0
LINE
  5
15c
100
AcDbEntity
  8
logo
 62
7
100
AcDbLine
 10
13.478883
 20
11.409976
 30
0.0
 11
13.478883
 21
11.078523
 31
0.0
  0
LINE
  5
15d
100
AcDbEntity
  8
logo
 62
7
100
AcDbLine
 10
13.478883
 20
11.078523
 30
0.0
 11
13.405225
 21
10.857555
 31
0.0
  0
LINE
  5
15e
100
AcDbEntity
  8
logo
 62
7
100
AcDbLine
 10
13.405225
 20
10.857555
 30
0.0
 11
13.331568
 21
10.747070
 31
0.0
  0
LINE
  5
15f
100
AcDbEntity
  8
logo
 62
7
100
AcDbLine
 10
13.331568
 20
10.747070
 30
0.0
 11
13.184253
 21
10.636586
 31
0.0
  0
LINE
  5
160
100
AcDbEntity
  8
logo
 62
7
100
AcDbLine
 10
13.184253
 20
10.636586
 30
0.0
 11
12.595007
 21
10.636586
 31
0.0
  0
LINE
  5
161
100
AcDbEntity
  8
logo
 62
7
100
AcDbLine
 10
7.291763
 20
7.808188
 30
0.0
 11
7.512721
 21
7.697704
 31
0.0
  0
LINE
  5
162
100
AcDbEntity
  8
logo
 62
7
100
AcDbLine
 10
7.512721
 20
7.697704
 30
0.0
 11
7.586378
 21
7.587219
 31
0.0
  0
LINE
  5
163
100
AcDbEntity
  8
logo
 62
7
100
AcDbLine
 10
7.586378
 20
7.587219
 30
0.0
 11
7.660036
 21
7.366251
 31
0.0
  0
LINE
  5
164
100
AcDbEntity
  8
logo
 62
7
100
AcDbLine
 10
7.660036
 20
7.366251
 30
0.0
 11
7.660036
 21
7.034798
 31
0.0
  0
LINE
  5
165
100
AcDbEntity
  8
logo
 62
7
100
AcDbLine
 10
7.660036
 20
7.034798
 30
0.0
 11
7.586378
 21
6.813829
 31
0.0
  0
LINE
  5
166
100
AcDbEntity
  8
logo
 62
7
100
AcDbLine
 10
7.586378
 20
6.813829
 30
0.0
 11
7.512721
 21
6.703346
 31
0.0
  0
LINE
  5
167
100
AcDbEntity
  8
logo
 62
7
100
AcDbLine
 10
7.512721
 20
6.703346
 30
0.0
 11
7.365421
 21
6.592861
 31
0.0
  0
LINE
  5
168
100
AcDbEntity
  8
logo
 62
7
100
AcDbLine
 10
7.365421
 20
6.592861
 30
0.0
 11
6.776160
 21
6.592861
 31
0.0
  0
LINE
  5
169
100
AcDbEntity
  8
logo
 62
7
100
AcDbLine
 10
6.776160
 20
6.592861
 30
0.0
 11
6.776160
 21
8.913031
 31
0.0
  0
LINE
  5
16a
100
AcDbEntity
  8
logo
 62
7
100
AcDbLine
 10
6.776160
 20
8.913031
 30
0.0
 11
7.291763
 21
8.913031
 31
0.0
  0
LINE
  5
16b
100
AcDbEntity
  8
logo
 62
7
100
AcDbLine
 10
7.291763
 20
8.913031
 30
0.0
 11
7.439078
 21
8.802546
 31
0.0
  0
LINE
  5
16c
100
AcDbEntity
  8
logo
 62
7
100
AcDbLine
 10
7.439078
 20
8.802546
 30
0.0
 11
7.512721
 21
8.692063
 31
0.0
  0
LINE
  5
16d
100
AcDbEntity
  8
logo
 62
7
100
AcDbLine
 10
7.512721
 20
8.692063
 30
0.0
 11
7.586378
 21
8.471094
 31
0.0
  0
LINE
  5
16e
100
AcDbEntity
  8
logo
 62
7
100
AcDbLine
 10
7.586378
 20
8.471094
 30
0.0
 11
7.586378
 21
8.250126
 31
0.0
  0
LINE
  5
16f
100
AcDbEntity
  8
logo
 62
7
100
AcDbLine
 10
7.586378
 20
8.250126
 30
0.0
 11
7.512721
 21
8.029156
 31
0.0
  0
LINE
  5
170
100
AcDbEntity
  8
logo
 62
7
100
AcDbLine
 10
7.512721
 20
8.029156
 30
0.0
 11
7.439078
 21
7.918673
 31
0.0
  0
LINE
  5
171
100
AcDbEntity
  8
logo
 62
7
100
AcDbLine
 10
7.439078
 20
7.918673
 30
0.0
 11
7.291763
 21
7.808188
 31
0.0
  0
LINE
  5
172
100
AcDbEntity
  8
logo
 62
7
100
AcDbLine
 10
7.291763
 20
7.808188
 30
0.0
 11
6.776160
 21
7.808188
 31
0.0
  0
LINE
  5
173
100
AcDbEntity
  8
logo
 62
7
100
AcDbLine
 10
9.059501
 20
6.592861
 30
0.0
 11
8.322940
 21
6.592861
 31
0.0
  0
LINE
  5
174
100
AcDbEntity
  8
logo
 62
7
100
AcDbLine
 10
8.322940
 20
6.592861
 30
0.0
 11
8.322940
 21
8.913031
 31
0.0
  0
LINE
  5
175
100
AcDbEntity
  8
logo
 62
7
100
AcDbLine
 10
9.869720
 20
8.913031
 30
0.0
 11
10.164350
 21
8.913031
 31
0.0
  0
LINE
  5
176
100
AcDbEntity
  8
logo
 62
7
100
AcDbLine
 10
10.164350
 20
8.913031
 30
0.0
 11
10.311665
 21
8.802546
 31
0.0
  0
LINE
  5
177
100
AcDbEntity
  8
logo
 62
7
100
AcDbLine
 10
10.311665
 20
8.802546
 30
0.0
 11
10.458981
 21
8.581578
 31
0.0
  0
LINE
  5
178
100
AcDbEntity
  8
logo
 62
7
100
AcDbLine
 10
10.458981
 20
8.581578
 30
0.0
 11
10.532638
 21
8.139641
 31
0.0
  0
LINE
  5
179
100
AcDbEntity
  8
logo
 62
7
100
AcDbLine
 10
10.532638
 20
8.139641
 30
0.0
 11
10.532638
 21
7.366251
 31
0.0
  0
LINE
  5
17a
100
AcDbEntity
  8
logo
 62
7
100
AcDbLine
 10
10.532638
 20
7.366251
 30
0.0
 11
10.458981
 21
6.924314
 31
0.0
  0
LINE
  5
17b
100
AcDbEntity
  8
logo
 62
7
100
AcDbLine
 10
10.458981
 20
6.924314
 30
0.0
 11
10.311665
 21
6.703346
 31
0.0
  0
LINE
  5
17c
100
AcDbEntity
  8
logo
 62
7
100
AcDbLine
 10
10.311665
 20
6.703346
 30
0.0
 11
10.164350
 21
6.592861
 31
0.0
  0
LINE
  5
17d
100
AcDbEntity
  8
logo
 62
7
100
AcDbLine
 10
10.164350
 20
6.592861
 30
0.0
 11
9.869720
 21
6.592861
 31
0.0
  0
LINE
  5
17e
100
AcDbEntity
  8
logo
 62
7
100
AcDbLine
 10
9.869720
 20
6.592861
 30
0.0
 11
9.722420
 21
6.703346
 31
0.0
  0
LINE
  5
17f
100
AcDbEntity
  8
logo
 62
7
100
AcDbLine
 10
9.722420
 20
6.703346
 30
0.0
 11
9.575104
 21
6.924314
 31
0.0
  0
LINE
  5
180
100
AcDbEntity
  8
logo
 62
7
100
AcDbLine
 10
9.575104
 20
6.924314
 30
0.0
 11
9.501447
 21
7.366251
 31
0.0
  0
LINE
  5
181
100
AcDbEntity
  8
logo
 62
7
100
AcDbLine
 10
9.501447
 20
7.366251
 30
0.0
 11
9.501447
 21
8.139641
 31
0.0
  0
LINE
  5
182
100
AcDbEntity
  8
logo
 62
7
100
AcDbLine
 10
9.501447
 20
8.139641
 30
0.0
 11
9.575104
 21
8.581578
 31
0.0
  0
LINE
  5
183
100
AcDbEntity
  8
logo
 62
7
100
AcDbLine
 10
9.575104
 20
8.581578
 30
0.0
 11
9.722420
 21
8.802546
 31
0.0
  0
LINE
  5
184
100
AcDbEntity
  8
logo
 62
7
100
AcDbLine
 10
9.722420
 20
8.802546
 30
0.0
 11
9.869720
 21
8.913031
 31
0.0
  0
LINE
  5
185
100
AcDbEntity
  8
logo
 62
7
100
AcDbLine
 10
11.490157
 20
8.913031
 30
0.0
 11
11.784788
 21
8.913031
 31
0.0
  0
LINE
  5
186
100
AcDbEntity
  8
logo
 62
7
100
AcDbLine
 10
11.784788
 20
8.913031
 30
0.0
 11
11.932103
 21
8.802546
 31
0.0
  0
LINE
  5
187
100
AcDbEntity
  8
logo
 62
7
100
AcDbLine
 10
11.932103
 20
8.802546
 30
0.0
 11
12.079418
 21
8.581578
 31
0.0
  0
LINE
  5
188
100
AcDbEntity
  8
logo
 62
7
100
AcDbLine
 10
12.079418
 20
8.581578
 30
0.0
 11
12.153061
 21
8.139641
 31
0.0
  0
LINE
  5
189
100
AcDbEntity
  8
logo
 62
7
100
AcDbLine
 10
12.153061
 20
8.139641
 30
0.0
 11
12.153061
 21
7.366251
 31
0.0
  0
LINE
  5
18a
100
AcDbEntity
  8
logo
 62
7
100
AcDbLine
 10
12.153061
 20
7.366251
 30
0.0
 11
12.079418
 21
6.924314
 31
0.0
  0
LINE
  5
18b
100
AcDbEntity
  8
logo
 62
7
100
AcDbLine
 10
12.079418
 20
6.924314
 30
0.0
 11
11.932103
 21
6.703346
 31
0.0
  0
LINE
  5
18c
100
AcDbEntity
  8
logo
 62
7
100
AcDbLine
 10
11.932103
 20
6.703346
 30
0.0
 11
11.784788
 21
6.592861
 31
0.0
  0
LINE
  5
18d
100
AcDbEntity
  8
logo
 62
7
100
AcDbLine
 10
11.784788
 20
6.592861
 30
0.0
 11
11.490157
 21
6.592861
 31
0.0
  0
LINE
  5
18e
100
AcDbEntity
  8
logo
 62
7
100
AcDbLine
 10
11.490157
 20
6.592861
 30
0.0
 11
11.342857
 21
6.703346
 31
0.0
  0
LINE
  5
18f
100
AcDbEntity
  8
logo
 62
7
100
AcDbLine
 10
11.342857
 20
6.703346
 30
0.0
 11
11.195542
 21
6.924314
 31
0.0
  0
LINE
  5
190
100
AcDbEntity
  8
logo
 62
7
100
AcDbLine
 10
11.195542
 20
6.924314
 30
0.0
 11
11.121884
 21
7.366251
 31
0.0
  0
LINE
  5
191
100
AcDbEntity
  8
logo
 62
7
100
AcDbLine
 10
11.121884
 20
7.366251
 30
0.0
 11
11.121884
 21
8.139641
 31
0.0
  0
LINE
  5
192
100
AcDbEntity
  8
logo
 62
7
100
AcDbLine
 10
11.121884
 20
8.139641
 30
0.0
 11
11.195542
 21
8.581578
 31
0.0
  0
LINE
  5
193
100
AcDbEntity
  8
logo
 62
7
100
AcDbLine
 10
11.195542
 20
8.581578
 30
0.0
 11
11.342857
 21
8.802546
 31
0.0
  0
LINE
  5
194
100
AcDbEntity
  8
logo
 62
7
100
AcDbLine
 10
11.342857
 20
8.802546
 30
0.0
 11
11.490157
 21
8.913031
 31
0.0
  0
LINE
  5
195
100
AcDbEntity
  8
logo
 62
7
100
AcDbLine
 10
12.815980
 20
6.592861
 30
0.0
 11
12.815980
 21
8.913031
 31
0.0
  0
LINE
  5
196
100
AcDbEntity
  8
logo
 62
7
100
AcDbLine
 10
12.815980
 20
8.913031
 30
0.0
 11
13.405225
 21
8.913031
 31
0.0
  0
LINE
  5
197
100
AcDbEntity
  8
logo
 62
7
100
AcDbLine
 10
13.405225
 20
8.913031
 30
0.0
 11
13.552541
 21
8.802546
 31
0.0
  0
LINE
  5
198
100
AcDbEntity
  8
logo
 62
7
100
AcDbLine
 10
13.552541
 20
8.802546
 30
0.0
 11
13.626198
 21
8.692063
 31
0.0
  0
LINE
  5
199
100
AcDbEntity
  8
logo
 62
7
100
AcDbLine
 10
13.626198
 20
8.692063
 30
0.0
 11
13.699841
 21
8.471094
 31
0.0
  0
LINE
  5
19a
100
AcDbEntity
  8
logo
 62
7
100
AcDbLine
 10
13.699841
 20
8.471094
 30
0.0
 11
13.699841
 21
8.139641
 31
0.0
  0
LINE
  5
19b
100
AcDbEntity
  8
logo
 62
7
100
AcDbLine
 10
13.699841
 20
8.139641
 30
0.0
 11
13.626198
 21
7.918673
 31
0.0
  0
LINE
  5
19c
100
AcDbEntity
  8
logo
 62
7
100
AcDbLine
 10
13.626198
 20
7.918673
 30
0.0
 11
13.552541
 21
7.808188
 31
0.0
  0
LINE
  5
19d
100
AcDbEntity
  8
logo
 62
7
100
AcDbLine
 10
13.552541
 20
7.808188
 30
0.0
 11
13.405225
 21
7.697704
 31
0.0
  0
LINE
  5
19e
100
AcDbEntity
  8
logo
 62
7
100
AcDbLine
 10
13.405225
 20
7.697704
 30
0.0
 11
12.815980
 21
7.697704
 31
0.0
  0
LINE
  5
19f
100
AcDbEntity
  8
logo
 62
7
100
AcDbLine
 10
5.701132
 20
12.077373
 30
0.0
 11
6.217818
 21
12.409889
 31
0.0
  0
LINE
  5
1a0
100
AcDbEntity
  8
logo
 62
7
100
AcDbLine
 10
5.287523
 20
7.098941
 30
0.0
 11
5.250957
 21
7.616528
 31
0.0
  0
LINE
  5
1a1
100
AcDbEntity
  8
logo
 62
7
100
AcDbLine
 10
5.246997
 20
5.979532
 30
0.0
 11
5.543484
 21
6.617148
 31
0.0
  0
LINE
  5
1a2
100
AcDbEntity
  8
logo
 62
7
100
AcDbLine
 10
14.955346
 20
6.946377
 30
0.0
 11
14.622820
 21
6.429697
 31
0.0
  0
LINE
  5
1a3
100
AcDbEntity
  8
logo
 62
7
100
AcDbLine
 10
5.250957
 20
10.890543
 30
0.0
 11
5.368621
 21
11.560693
 31
0.0
  0
LINE
  5
1a4
100
AcDbEntity
  8
logo
 62
7
100
AcDbLine
 10
14.622820
 20
12.077373
 30
0.0
 11
14.955346
 21
11.560693
 31
0.0
  0
LINE
  5
1a5
100
AcDbEntity
  8
logo
 62
7
100
AcDbLine
 10
14.106149
 20
12.409892
 30
0.0
 11
14.622820
 21
12.077373
 31
0.0
  0
LINE
  5
1a6
100
AcDbEntity
  8
logo
 62
7
100
AcDbLine
 10
15.073010
 20
10.890546
 30
0.0
 11
15.072995
 21
7.616528
 31
0.0
  0
LINE
  5
1a7
100
AcDbEntity
  8
logo
 62
7
100
AcDbLine
 10
5.368621
 20
11.560693
 30
0.0
 11
5.701132
 21
12.077373
 31
0.0
  0
LINE
  5
1a8
100
AcDbEntity
  8
logo
 62
7
100
AcDbLine
 10
6.376471
 20
6.014368
 30
0.0
 11
5.908431
 21
6.258316
 31
0.0
  0
LINE
  5
1a9
100
AcDbEntity
  8
logo
 62
7
100
AcDbLine
 10
5.908431
 20
6.258316
 30
0.0
 11
5.246997
 21
5.979532
 31
0.0
  0
LINE
  5
1aa
100
AcDbEntity
  8
logo
 62
7
100
AcDbLine
 10
6.887961
 20
12.527549
 30
0.0
 11
13.435991
 21
12.527554
 31
0.0
  0
LINE
  5
1ab
100
AcDbEntity
  8
logo
 62
7
100
AcDbLine
 10
13.435991
 20
12.527554
 30
0.0
 11
14.106149
 21
12.409892
 31
0.0
  0
LINE
  5
1ac
100
AcDbEntity
  8
logo
 62
7
100
AcDbLine
 10
14.106149
 20
6.097180
 30
0.0
 11
13.435991
 21
5.979519
 31
0.0
  0
LINE
  5
1ad
100
AcDbEntity
  8
logo
 62
7
100
AcDbLine
 10
15.072995
 20
7.616528
 30
0.0
 11
14.955346
 21
6.946377
 31
0.0
  0
LINE
  5
1ae
100
AcDbEntity
  8
logo
 62
7
100
AcDbLine
 10
13.435991
 20
5.979519
 30
0.0
 11
6.887961
 21
5.979519
 31
0.0
  0
LINE
  5
1af
100
AcDbEntity
  8
logo
 62
7
100
AcDbLine
 10
6.887961
 20
5.979519
 30
0.0
 11
6.376471
 21
6.014368
 31
0.0
  0
LINE
  5
1b0
100
AcDbEntity
  8
logo
 62
7
100
AcDbLine
 10
14.622820
 20
6.429697
 30
0.0
 11
14.106149
 21
6.097180
 31
0.0
  0
LINE
  5
1b1
100
AcDbEntity
  8
logo
 62
7
100
AcDbLine
 10
5.543484
 20
6.617148
 30
0.0
 11
5.287523
 21
7.098941
 31
0.0
  0
LINE
  5
1b2
100
AcDbEntity
  8
logo
 62
7
100
AcDbLine
 10
6.217818
 20
12.409889
 30
0.0
 11
6.887961
 21
12.527549
 31
0.0
  0
LINE
  5
1b3
100
AcDbEntity
  8
logo
 62
7
100
AcDbLine
 10
14.955346
 20
11.560693
 30
0.0
 11
15.073010
 21
10.890546
 31
0.0
  0
LINE
  5
1b4
100
AcDbEntity
  8
logo
 62
7
100
AcDbLine
 10
5.250957
 20
7.616528
 30
0.0
 11
5.250957
 21
10.890543
 31
0.0
  0
LINE
  5
1b5
100
AcDbEntity
  8
logo
 62
7
100
AcDbLine
 10
10.201184
 20
9.421274
 30
0.0
 11
10.201184
 21
9.421258
 31
0.0
  0
LINE
  5
1b6
100
AcDbEntity
  8
logo
 62
7
100
AcDbLine
 10
10.201184
 20
9.421274
 30
0.0
 11
10.201191
 21
9.421274
 31
0.0
  0
LINE
  5
1b7
100
AcDbEntity
  8
logo
 62
7
100
AcDbLine
 10
10.201191
 20
9.421274
 30
0.0
 11
10.201194
 21
9.421274
 31
0.0
  0
LINE
  5
1b8
100
AcDbEntity
  8
logo
 62
7
100
AcDbLine
 10
10.201194
 20
9.421274
 30
0.0
 11
10.201195
 21
9.421273
 31
0.0
  0
LINE
  5
1b9
100
AcDbEntity
  8
logo
 62
7
100
AcDbLine
 10
10.201195
 20
9.421273
 30
0.0
 11
10.201195
 21
9.421271
 31
0.0
  0
LINE
  5
1ba
100
AcDbEntity
  8
logo
 62
7
100
AcDbLine
 10
10.201195
 20
9.421271
 30
0.0
 11
10.201195
 21
9.421270
 31
0.0
  0
LINE
  5
1bb
100
AcDbEntity
  8
logo
 62
7
100
AcDbLine
 10
10.201195
 20
9.421270
 30
0.0
 11
10.201195
 21
9.421268
 31
0.0
  0
LINE
  5
1bc
100
AcDbEntity
  8
logo
 62
7
100
AcDbLine
 10
10.201195
 20
9.421268
 30
0.0
 11
10.201194
 21
9.421267
 31
0.0
  0
LINE
  5
1bd
100
AcDbEntity
  8
logo
 62
7
100
AcDbLine
 10
10.201194
 20
9.421267
 30
0.0
 11
10.201191
 21
9.421267
 31
0.0
  0
LINE
  5
1be
100
AcDbEntity
  8
logo
 62
7
100
AcDbLine
 10
10.201184
 20
9.421267
 30
0.0
 11
10.201191
 21
9.421267
 31
0.0
  0
LINE
  5
1bf
100
AcDbEntity
  8
logo
 62
7
100
AcDbLine
 10
10.201191
 20
9.421267
 30
0.0
 11
10.201194
 21
9.421266
 31
0.0
  0
LINE
  5
1c0
100
AcDbEntity
  8
logo
 62
7
100
AcDbLine
 10
10.201194
 20
9.421266
 30
0.0
 11
10.201195
 21
9.421265
 31
0.0
  0
LINE
  5
1c1
100
AcDbEntity
  8
logo
 62
7
100
AcDbLine
 10
10.201195
 20
9.421265
 30
0.0
 11
10.201195
 21
9.421263
 31
0.0
  0
LINE
  5
1c2
100
AcDbEntity
  8
logo
 62
7
100
AcDbLine
 10
10.201195
 20
9.421263
 30
0.0
 11
10.201195
 21
9.421261
 31
0.0
  0
LINE
  5
1c3
100
AcDbEntity
  8
logo
 62
7
100
AcDbLine
 10
10.201195
 20
9.421261
 30
0.0
 11
10.201195
 21
9.421260
 31
0.0
  0
LINE
  5
1c4
100
AcDbEntity
  8
logo
 62
7
100
AcDbLine
 10
10.201195
 20
9.421260
 30
0.0
 11
10.201194
 21
9.421259
 31
0.0
  0
LINE
  5
1c5
100
AcDbEntity
  8
logo
 62
7
100
AcDbLine
 10
10.201194
 20
9.421259
 30
0.0
 11
10.201191
 21
9.421258
 31
0.0
  0
LINE
  5
1c6
100
AcDbEntity
  8
logo
 62
7
100
AcDbLine
 10
10.201191
 20
9.421258
 30
0.0
 11
10.201184
 21
9.421258
 31
0.0
  0
LINE
  5
1c7
100
AcDbEntity
  8
logo
 62
7
100
AcDbLine
 10
10.201201
 20
9.421274
 30
0.0
 11
10.201201
 21
9.421258
 31
0.0
  0
LINE
  5
1c8
100
AcDbEntity
  8
logo
 62
7
100
AcDbLine
 10
10.201201
 20
9.421258
 30
0.0
 11
10.201210
 21
9.421258
 31
0.0
  0
LINE
  5
1c9
100
AcDbEntity
  8
logo
 62
7
100
AcDbLine
 10
10.201214
 20
9.421274
 30
0.0
 11
10.201214
 21
9.421258
 31
0.0
  0
LINE
  5
1ca
100
AcDbEntity
  8
logo
 62
7
100
AcDbLine
 10
10.201214
 20
9.421274
 30
0.0
 11
10.201224
 21
9.421274
 31
0.0
  0
LINE
  5
1cb
100
AcDbEntity
  8
logo
 62
7
100
AcDbLine
 10
10.201214
 20
9.421267
 30
0.0
 11
10.201220
 21
9.421267
 31
0.0
  0
LINE
  5
1cc
100
AcDbEntity
  8
logo
 62
7
100
AcDbLine
 10
10.201214
 20
9.421258
 30
0.0
 11
10.201224
 21
9.421258
 31
0.0
  0
LINE
  5
1cd
100
AcDbEntity
  8
logo
 62
7
100
AcDbLine
 10
10.201229
 20
9.421274
 30
0.0
 11
10.201229
 21
9.421258
 31
0.0
  0
LINE
  5
1ce
100
AcDbEntity
  8
logo
 62
7
100
AcDbLine
 10
10.201229
 20
9.421274
 30
0.0
 11
10.201239
 21
9.421274
 31
0.0
  0
LINE
  5
1cf
100
AcDbEntity
  8
logo
 62
7
100
AcDbLine
 10
10.201229
 20
9.421267
 30
0.0
 11
10.201235
 21
9.421267
 31
0.0
  0
LINE
  5
1d0
100
AcDbEntity
  8
logo
 62
7
100
AcDbLine
 10
10.201229
 20
9.421258
 30
0.0
 11
10.201239
 21
9.421258
 31
0.0
  0
LINE
  5
1d1
100
AcDbEntity
  8
logo
 62
7
100
AcDbLine
 10
10.201244
 20
9.421274
 30
0.0
 11
10.201244
 21
9.421258
 31
0.0
  0
LINE
  5
1d2
100
AcDbEntity
  8
logo
 62
7
100
AcDbLine
 10
10.201244
 20
9.421274
 30
0.0
 11
10.201251
 21
9.421274
 31
0.0
  0
LINE
  5
1d3
100
AcDbEntity
  8
logo
 62
7
100
AcDbLine
 10
10.201251
 20
9.421274
 30
0.0
 11
10.201253
 21
9.421274
 31
0.0
  0
LINE
  5
1d4
100
AcDbEntity
  8
logo
 62
7
100
AcDbLine
 10
10.201253
 20
9.421274
 30
0.0
 11
10.201254
 21
9.421273
 31
0.0
  0
LINE
  5
1d5
100
AcDbEntity
  8
logo
 62
7
100
AcDbLine
 10
10.201254
 20
9.421273
 30
0.0
 11
10.201255
 21
9.421271
 31
0.0
  0
LINE
  5
1d6
100
AcDbEntity
  8
logo
 62
7
100
AcDbLine
 10
10.201255
 20
9.421271
 30
0.0
 11
10.201255
 21
9.421269
 31
0.0
  0
LINE
  5
1d7
100
AcDbEntity
  8
logo
 62
7
100
AcDbLine
 10
10.201255
 20
9.421269
 30
0.0
 11
10.201254
 21
9.421267
 31
0.0
  0
LINE
  5
1d8
100
AcDbEntity
  8
logo
 62
7
100
AcDbLine
 10
10.201254
 20
9.421267
 30
0.0
 11
10.201253
 21
9.421267
 31
0.0
  0
LINE
  5
1d9
100
AcDbEntity
  8
logo
 62
7
100
AcDbLine
 10
10.201253
 20
9.421267
 30
0.0
 11
10.201251
 21
9.421266
 31
0.0
  0
LINE
  5
1da
100
AcDbEntity
  8
logo
 62
7
100
AcDbLine
 10
10.201251
 20
9.421266
 30
0.0
 11
10.201244
 21
9.421266
 31
0.0
  0
LINE
  5
1db
100
AcDbEntity
  8
logo
 62
7
100
AcDbLine
 10
10.201184
 20
6.482392
 30
0.0
 11
10.201184
 21
6.482376
 31
0.0
  0
LINE
  5
1dc
100
AcDbEntity
  8
logo
 62
7
100
AcDbLine
 10
10.201184
 20
6.482392
 30
0.0
 11
10.201191
 21
6.482392
 31
0.0
  0
LINE
  5
1dd
100
AcDbEntity
  8
logo
 62
7
100
AcDbLine
 10
10.201191
 20
6.482392
 30
0.0
 11
10.201194
 21
6.482392
 31
0.0
  0
LINE
  5
1de
100
AcDbEntity
  8
logo
 62
7
100
AcDbLine
 10
10.201194
 20
6.482392
 30
0.0
 11
10.201195
 21
6.482391
 31
0.0
  0
LINE
  5
1df
100
AcDbEntity
  8
logo
 62
7
100
AcDbLine
 10
10.201195
 20
6.482391
 30
0.0
 11
10.201195
 21
6.482389
 31
0.0
  0
LINE
  5
1e0
100
AcDbEntity
  8
logo
 62
7
100
AcDbLine
 10
10.201195
 20
6.482389
 30
0.0
 11
10.201195
 21
6.482388
 31
0.0
  0
LINE
  5
1e1
100
AcDbEntity
  8
logo
 62
7
100
AcDbLine
 10
10.201195
 20
6.482388
 30
0.0
 11
10.201195
 21
6.482386
 31
0.0
  0
LINE
  5
1e2
100
AcDbEntity
  8
logo
 62
7
100
AcDbLine
 10
10.201195
 20
6.482386
 30
0.0
 11
10.201194
 21
6.482385
 31
0.0
  0
LINE
  5
1e3
100
AcDbEntity
  8
logo
 62
7
100
AcDbLine
 10
10.201194
 20
6.482385
 30
0.0
 11
10.201191
 21
6.482385
 31
0.0
  0
LINE
  5
1e4
100
AcDbEntity
  8
logo
 62
7
100
AcDbLine
 10
10.201184
 20
6.482385
 30
0.0
 11
10.201191
 21
6.482385
 31
0.0
  0
LINE
  5
1e5
100
AcDbEntity
  8
logo
 62
7
100
AcDbLine
 10
10.201191
 20
6.482385
 30
0.0
 11
10.201194
 21
6.482384
 31
0.0
  0
LINE
  5
1e6
100
AcDbEntity
  8
logo
 62
7
100
AcDbLine
 10
10.201194
 20
6.482384
 30
0.0
 11
10.201195
 21
6.482383
 31
0.0
  0
LINE
  5
1e7
100
AcDbEntity
  8
logo
 62
7
100
AcDbLine
 10
10.201195
 20
6.482383
 30
0.0
 11
10.201195
 21
6.482381
 31
0.0
  0
LINE
  5
1e8
100
AcDbEntity
  8
logo
 62
7
100
AcDbLine
 10
10.201195
 20
6.482381
 30
0.0
 11
10.201195
 21
6.482379
 31
0.0
  0
LINE
  5
1e9
100
AcDbEntity
  8
logo
 62
7
100
AcDbLine
 10
10.201195
 20
6.482379
 30
0.0
 11
10.201195
 21
6.482378
 31
0.0
  0
LINE
  5
1ea
100
AcDbEntity
  8
logo
 62
7
100
AcDbLine
 10
10.201195
 20
6.482378
 30
0.0
 11
10.201194
 21
6.482377
 31
0.0
  0
LINE
  5
1eb
100
AcDbEntity
  8
logo
 62
7
100
AcDbLine
 10
10.201194
 20
6.482377
 30
0.0
 11
10.201191
 21
6.482376
 31
0.0
  0
LINE
  5
1ec
100
AcDbEntity
  8
logo
 62
7
100
AcDbLine
 10
10.201191
 20
6.482376
 30
0.0
 11
10.201184
 21
6.482376
 31
0.0
  0
LINE
  5
1ed
100
AcDbEntity
  8
logo
 62
7
100
AcDbLine
 10
10.201201
 20
6.482392
 30
0.0
 11
10.201201
 21
6.482376
 31
0.0
  0
LINE
  5
1ee
100
AcDbEntity
  8
logo
 62
7
100
AcDbLine
 10
10.201201
 20
6.482376
 30
0.0
 11
10.201210
 21
6.482376
 31
0.0
  0
LINE
  5
1ef
100
AcDbEntity
  8
logo
 62
7
100
AcDbLine
 10
10.201218
 20
6.482392
 30
0.0
 11
10.201216
 21
6.482392
 31
0.0
  0
LINE
  5
1f0
100
AcDbEntity
  8
logo
 62
7
100
AcDbLine
 10
10.201216
 20
6.482392
 30
0.0
 11
10.201215
 21
6.482390
 31
0.0
  0
LINE
  5
1f1
100
AcDbEntity
  8
logo
 62
7
100
AcDbLine
 10
10.201215
 20
6.482390
 30
0.0
 11
10.201214
 21
6.482388
 31
0.0
  0
LINE
  5
1f2
100
AcDbEntity
  8
logo
 62
7
100
AcDbLine
 10
10.201214
 20
6.482388
 30
0.0
 11
10.201213
 21
6.482386
 31
0.0
  0
LINE
  5
1f3
100
AcDbEntity
  8
logo
 62
7
100
AcDbLine
 10
10.201213
 20
6.482386
 30
0.0
 11
10.201213
 21
6.482382
 31
0.0
  0
LINE
  5
1f4
100
AcDbEntity
  8
logo
 62
7
100
AcDbLine
 10
10.201213
 20
6.482382
 30
0.0
 11
10.201214
 21
6.482380
 31
0.0
  0
LINE
  5
1f5
100
AcDbEntity
  8
logo
 62
7
100
AcDbLine
 10
10.201214
 20
6.482380
 30
0.0
 11
10.201215
 21
6.482378
 31
0.0
  0
LINE
  5
1f6
100
AcDbEntity
  8
logo
 62
7
100
AcDbLine
 10
10.201215
 20
6.482378
 30
0.0
 11
10.201216
 21
6.482377
 31
0.0
  0
LINE
  5
1f7
100
AcDbEntity
  8
logo
 62
7
100
AcDbLine
 10
10.201216
 20
6.482377
 30
0.0
 11
10.201218
 21
6.482376
 31
0.0
  0
LINE
  5
1f8
100
AcDbEntity
  8
logo
 62
7
100
AcDbLine
 10
10.201218
 20
6.482376
 30
0.0
 11
10.201221
 21
6.482376
 31
0.0
  0
LINE
  5
1f9
100
AcDbEntity
  8
logo
 62
7
100
AcDbLine
 10
10.201221
 20
6.482376
 30
0.0
 11
10.201223
 21
6.482377
 31
0.0
  0
LINE
  5
1fa
100
AcDbEntity
  8
logo
 62
7
100
AcDbLine
 10
10.201223
 20
6.482377
 30
0.0
 11
10.201224
 21
6.482378
 31
0.0
  0
LINE
  5
1fb
100
AcDbEntity
  8
logo
 62
7
100
AcDbLine
 10
10.201224
 20
6.482378
 30
0.0
 11
10.201225
 21
6.482380
 31
0.0
  0
LINE
  5
1fc
100
AcDbEntity
  8
logo
 62
7
100
AcDbLine
 10
10.201225
 20
6.482380
 30
0.0
 11
10.201226
 21
6.482382
 31
0.0
  0
LINE
  5
1fd
100
AcDbEntity
  8
logo
 62
7
100
AcDbLine
 10
10.201226
 20
6.482382
 30
0.0
 11
10.201226
 21
6.482386
 31
0.0
  0
LINE
  5
1fe
100
AcDbEntity
  8
logo
 62
7
100
AcDbLine
 10
10.201226
 20
6.482386
 30
0.0
 11
10.201225
 21
6.482388
 31
0.0
  0
LINE
  5
1ff
100
AcDbEntity
  8
logo
 62
7
100
AcDbLine
 10
10.201225
 20
6.482388
 30
0.0
 11
10.201224
 21
6.482390
 31
0.0
  0
LINE
  5
200
100
AcDbEntity
  8
logo
 62
7
100
AcDbLine
 10
10.201224
 20
6.482390
 30
0.0
 11
10.201223
 21
6.482392
 31
0.0
  0
LINE
  5
201
100
AcDbEntity
  8
logo
 62
7
100
AcDbLine
 10
10.201223
 20
6.482392
 30
0.0
 11
10.201221
 21
6.482392
 31
0.0
  0
LINE
  5
202
100
AcDbEntity
  8
logo
 62
7
100
AcDbLine
 10
10.201221
 20
6.482392
 30
0.0
 11
10.201218
 21
6.482392
 31
0.0
  0
LINE
  5
203
100
AcDbEntity
  8
logo
 62
7
100
AcDbLine
 10
10.201235
 20
6.482392
 30
0.0
 11
10.201234
 21
6.482392
 31
0.0
  0
LINE
  5
204
100
AcDbEntity
  8
logo
 62
7
100
AcDbLine
 10
10.201234
 20
6.482392
 30
0.0
 11
10.201232
 21
6.482390
 31
0.0
  0
LINE
  5
205
100
AcDbEntity
  8
logo
 62
7
100
AcDbLine
 10
10.201232
 20
6.482390
 30
0.0
 11
10.201231
 21
6.482388
 31
0.0
  0
LINE
  5
206
100
AcDbEntity
  8
logo
 62
7
100
AcDbLine
 10
10.201231
 20
6.482388
 30
0.0
 11
10.201230
 21
6.482386
 31
0.0
  0
LINE
  5
207
100
AcDbEntity
  8
logo
 62
7
100
AcDbLine
 10
10.201230
 20
6.482386
 30
0.0
 11
10.201230
 21
6.482382
 31
0.0
  0
LINE
  5
208
100
AcDbEntity
  8
logo
 62
7
100
AcDbLine
 10
10.201230
 20
6.482382
 30
0.0
 11
10.201231
 21
6.482380
 31
0.0
  0
LINE
  5
209
100
AcDbEntity
  8
logo
 62
7
100
AcDbLine
 10
10.201231
 20
6.482380
 30
0.0
 11
10.201232
 21
6.482378
 31
0.0
  0
LINE
  5
20a
100
AcDbEntity
  8
logo
 62
7
100
AcDbLine
 10
10.201232
 20
6.482378
 30
0.0
 11
10.201234
 21
6.482377
 31
0.0
  0
LINE
  5
20b
100
AcDbEntity
  8
logo
 62
7
100
AcDbLine
 10
10.201234
 20
6.482377
 30
0.0
 11
10.201235
 21
6.482376
 31
0.0
  0
LINE
  5
20c
100
AcDbEntity
  8
logo
 62
7
100
AcDbLine
 10
10.201235
 20
6.482376
 30
0.0
 11
10.201238
 21
6.482376
 31
0.0
  0
LINE
  5
20d
100
AcDbEntity
  8
logo
 62
7
100
AcDbLine
 10
10.201238
 20
6.482376
 30
0.0
 11
10.201240
 21
6.482377
 31
0.0
  0
LINE
  5
20e
100
AcDbEntity
  8
logo
 62
7
100
AcDbLine
 10
10.201240
 20
6.482377
 30
0.0
 11
10.201241
 21
6.482378
 31
0.0
  0
LINE
  5
20f
100
AcDbEntity
  8
logo
 62
7
100
AcDbLine
 10
10.201241
 20
6.482378
 30
0.0
 11
10.201242
 21
6.482380
 31
0.0
  0
LINE
  5
210
100
AcDbEntity
  8
logo
 62
7
100
AcDbLine
 10
10.201242
 20
6.482380
 30
0.0
 11
10.201243
 21
6.482382
 31
0.0
  0
LINE
  5
211
100
AcDbEntity
  8
logo
 62
7
100
AcDbLine
 10
10.201243
 20
6.482382
 30
0.0
 11
10.201243
 21
6.482386
 31
0.0
  0
LINE
  5
212
100
AcDbEntity
  8
logo
 62
7
100
AcDbLine
 10
10.201243
 20
6.482386
 30
0.0
 11
10.201242
 21
6.482388
 31
0.0
  0
LINE
  5
213
100
AcDbEntity
  8
logo
 62
7
100
AcDbLine
 10
10.201242
 20
6.482388
 30
0.0
 11
10.201241
 21
6.482390
 31
0.0
  0
LINE
  5
214
100
AcDbEntity
  8
logo
 62
7
100
AcDbLine
 10
10.201241
 20
6.482390
 30
0.0
 11
10.201240
 21
6.482392
 31
0.0
  0
LINE
  5
215
100
AcDbEntity
  8
logo
 62
7
100
AcDbLine
 10
10.201240
 20
6.482392
 30
0.0
 11
10.201238
 21
6.482392
 31
0.0
  0
LINE
  5
216
100
AcDbEntity
  8
logo
 62
7
100
AcDbLine
 10
10.201238
 20
6.482392
 30
0.0
 11
10.201235
 21
6.482392
 31
0.0
  0
LINE
  5
217
100
AcDbEntity
  8
logo
 62
7
100
AcDbLine
 10
10.201248
 20
6.482392
 30
0.0
 11
10.201248
 21
6.482376
 31
0.0
  0
LINE
  5
218
100
AcDbEntity
  8
logo
 62
7
100
AcDbLine
 10
10.201248
 20
6.482392
 30
0.0
 11
10.201255
 21
6.482392
 31
0.0
  0
LINE
  5
219
100
AcDbEntity
  8
logo
 62
7
100
AcDbLine
 10
10.201255
 20
6.482392
 30
0.0
 11
10.201258
 21
6.482392
 31
0.0
  0
LINE
  5
21a
100
AcDbEntity
  8
logo
 62
7
100
AcDbLine
 10
10.201258
 20
6.482392
 30
0.0
 11
10.201259
 21
6.482391
 31
0.0
  0
LINE
  5
21b
100
AcDbEntity
  8
logo
 62
7
100
AcDbLine
 10
10.201259
 20
6.482391
 30
0.0
 11
10.201259
 21
6.482389
 31
0.0
  0
LINE
  5
21c
100
AcDbEntity
  8
logo
 62
7
100
AcDbLine
 10
10.201259
 20
6.482389
 30
0.0
 11
10.201259
 21
6.482387
 31
0.0
  0
LINE
  5
21d
100
AcDbEntity
  8
logo
 62
7
100
AcDbLine
 10
10.201259
 20
6.482387
 30
0.0
 11
10.201259
 21
6.482385
 31
0.0
  0
LINE
  5
21e
100
AcDbEntity
  8
logo
 62
7
100
AcDbLine
 10
10.201259
 20
6.482385
 30
0.0
 11
10.201258
 21
6.482385
 31
0.0
  0
LINE
  5
21f
100
AcDbEntity
  8
logo
 62
7
100
AcDbLine
 10
10.201258
 20
6.482385
 30
0.0
 11
10.201255
 21
6.482384
 31
0.0
  0
LINE
  5
220
100
AcDbEntity
  8
logo
 62
7
100
AcDbLine
 10
10.201255
 20
6.482384
 30
0.0
 11
10.201248
 21
6.482384
 31
0.0
  0
SPLINE
  5
221
100
AcDbEntity
  8
graphic
 62
7
100
AcDbSpline
 70
8
 71
3
 72
8
 73
4
 74
0
 40
0
 40
0
 40
0
 40
0
 40
1
 40
1
 40
1
 40
1
 10
10.160001
 20
53.983073
 30
0.0
 10
2.710726
 20
54.599004
 30
0.0
 10
3.161343
 20
55.202947
 30
0.0
 10
10.160001
 20
55.796966
 30
0.0
  0
SPLINE
  5
222
100
AcDbEntity
  8
graphic
 62
7
100
AcDbSpline
 70
8
 71
3
 72
8
 73
4
 74
0
 40
0
 40
0
 40
0
 40
0
 40
1
 40
1
 40
1
 40
1
 10
10.160001
 20
55.796966
 30
0.0
 10
17.003636
 20
56.383978
 30
0.0
 10
17.759001
 20
56.986662
 30
0.0
 10
10.160001
 20
57.610859
 30
0.0
  0
SPLINE
  5
223
100
AcDbEntity
  8
graphic
 62
7
100
AcDbSpline
 70
8
 71
3
 72
8
 73
4
 74
0
 40
0
 40
0
 40
0
 40
0
 40
1
 40
1
 40
1
 40
1
 10
10.160001
 20
57.610859
 30
0.0
 10
4.788510
 20
58.142915
 30
0.0
 10
1.269910
 20
58.700010
 30
0.0
 10
10.160001
 20
59.424746
 30
0.0
  0
SPLINE
  5
224
100
AcDbEntity
  8
graphic
 62
7
100
AcDbSpline
 70
8
 71
3
 72
8
 73
4
 74
0
 40
0
 40
0
 40
0
 40
0
 40
1
 40
1
 40
1
 40
1
 10
10.160001
 20
59.424746
 30
0.0
 10
17.808694
 20
60.051807
 30
0.0
 10
16.951556
 20
60.653927
 30
0.0
 10
10.160001
 20
61.238636
 30
0.0
  0
SPLINE
  5
225
100
AcDbEntity
  8
graphic
 62
7
100
AcDbSpline
 70
8
 71
3
 72
8
 73
4
 74
0
 40
0
 40
0
 40
0
 40
0
 40
1
 40
1
 40
1
 40
1
 10
10.160001
 20
61.238636
 30
0.0
 10
4.076402
 20
61.794579
 30
0.0
 10
1.865377
 20
62.381511
 30
0.0
 10
10.160001
 20
63.052526
 30
0.0
  0
SPLINE
  5
226
100
AcDbEntity
  8
graphic
 62
7
100
AcDbSpline
 70
8
 71
3
 72
8
 73
4
 74
0
 40
0
 40
0
 40
0
 40
0
 40
1
 40
1
 40
1
 40
1
 10
10.160001
 20
63.052526
 30
0.0
 10
17.620444
 20
63.669055
 30
0.0
 10
17.147193
 20
64.272931
 30
0.0
 10
10.160001
 20
64.866419
 30
0.0
  0
SPLINE
  5
227
100
AcDbEntity
  8
graphic
 62
7
100
AcDbSpline
 70
8
 71
3
 72
8
 73
4
 74
0
 40
0
 40
0
 40
0
 40
0
 40
1
 40
1
 40
1
 40
1
 10
10.160001
 20
64.866419
 30
0.0
 10
2.796701
 20
65.477866
 30
0.0
 10
3.073558
 20
66.082242
 30
0.0
 10
10.160001
 20
66.680313
 30
0.0
  0
LINE
  5
228
100
AcDbEntity
  8
graphic
 62
7
100
AcDbLine
 10
10.160001
 20
66.680313
 30
0.0
 11
10.160001
 21
68.494200
 31
0.0
  0
SPLINE
  5
229
100
AcDbEntity
  8
graphic
 62
7
100
AcDbSpline
 70
8
 71
3
 72
8
 73
4
 74
0
 40
0
 40
0
 40
0
 40
0
 40
1
 40
1
 40
1
 40
1
 10
10.156260
 20
93.910619
 30
0.0
 10
17.605538
 20
93.294689
 30
0.0
 10
17.154920
 20
92.690740
 30
0.0
 10
10.156260
 20
92.096727
 30
0.0
  0
SPLINE
  5
22a
100
AcDbEntity
  8
graphic
 62
7
100
AcDbSpline
 70
8
 71
3
 72
8
 73
4
 74
0
 40
0
 40
0
 40
0
 40
0
 40
1
 40
1
 40
1
 40
1
 10
10.156260
 20
92.096727
 30
0.0
 10
3.312625
 20
91.509715
 30
0.0
 10
2.557257
 20
90.907031
 30
0.0
 10
10.156260
 20
90.282835
 30
0.0
  0
SPLINE
  5
22b
100
AcDbEntity
  8
graphic
 62
7
100
AcDbSpline
 70
8
 71
3
 72
8
 73
4
 74
0
 40
0
 40
0
 40
0
 40
0
 40
1
 40
1
 40
1
 40
1
 10
10.156260
 20
90.282835
 30
0.0
 10
15.527752
 20
89.750776
 30
0.0
 10
19.046352
 20
89.193686
 30
0.0
 10
10.156260
 20
88.468950
 30
0.0
  0
SPLINE
  5
22c
100
AcDbEntity
  8
graphic
 62
7
100
AcDbSpline
 70
8
 71
3
 72
8
 73
4
 74
0
 40
0
 40
0
 40
0
 40
0
 40
1
 40
1
 40
1
 40
1
 10
10.156260
 20
88.468950
 30
0.0
 10
2.507564
 20
87.841888
 30
0.0
 10
3.364700
 20
87.239771
 30
0.0
 10
10.156260
 20
86.655060
 30
0.0
  0
SPLINE
  5
22d
100
AcDbEntity
  8
graphic
 62
7
100
AcDbSpline
 70
8
 71
3
 72
8
 73
4
 74
0
 40
0
 40
0
 40
0
 40
0
 40
1
 40
1
 40
1
 40
1
 10
10.156260
 20
86.655060
 30
0.0
 10
16.239860
 20
86.099119
 30
0.0
 10
18.450885
 20
85.512184
 30
0.0
 10
10.156260
 20
84.841171
 30
0.0
  0
SPLINE
  5
22e
100
AcDbEntity
  8
graphic
 62
7
100
AcDbSpline
 70
8
 71
3
 72
8
 73
4
 74
0
 40
0
 40
0
 40
0
 40
0
 40
1
 40
1
 40
1
 40
1
 10
10.156260
 20
84.841171
 30
0.0
 10
2.695814
 20
84.224642
 30
0.0
 10
3.169067
 20
83.620767
 30
0.0
 10
10.156260
 20
83.027281
 30
0.0
  0
SPLINE
  5
22f
100
AcDbEntity
  8
graphic
 62
7
100
AcDbSpline
 70
8
 71
3
 72
8
 73
4
 74
0
 40
0
 40
0
 40
0
 40
0
 40
1
 40
1
 40
1
 40
1
 10
10.156260
 20
83.027281
 30
0.0
 10
17.519562
 20
82.415833
 30
0.0
 10
17.242704
 20
81.811459
 30
0.0
 10
10.156260
 20
81.213390
 30
0.0
  0
LINE
  5
230
100
AcDbEntity
  8
graphic
 62
7
100
AcDbLine
 10
10.156260
 20
81.213390
 30
0.0
 11
10.156260
 21
79.399502
 31
0.0
  0
SPLINE
  5
231
100
AcDbEntity
  8
graphic
 62
7
100
AcDbSpline
 70
8
 71
3
 72
8
 73
4
 74
0
 40
0
 40
0
 40
0
 40
0
 40
1
 40
1
 40
1
 40
1
 10
9.461493
 20
69.221219
 30
0.0
 10
9.461493
 20
68.932933
 30
0.0
 10
9.635152
 20
68.673033
 30
0.0
 10
9.901494
 20
68.562711
 30
0.0
  0
SPLINE
  5
232
100
AcDbEntity
  8
graphic
 62
7
100
AcDbSpline
 70
8
 71
3
 72
8
 73
4
 74
0
 40
0
 40
0
 40
0
 40
0
 40
1
 40
1
 40
1
 40
1
 10
9.901494
 20
68.562711
 30
0.0
 10
10.167836
 20
68.452389
 30
0.0
 10
10.474408
 20
68.513370
 30
0.0
 10
10.678257
 20
68.717219
 30
0.0
  0
SPLINE
  5
233
100
AcDbEntity
  8
graphic
 62
7
100
AcDbSpline
 70
8
 71
3
 72
8
 73
4
 74
0
 40
0
 40
0
 40
0
 40
0
 40
1
 40
1
 40
1
 40
1
 10
10.678257
 20
68.717219
 30
0.0
 10
10.882106
 20
68.921068
 30
0.0
 10
10.943087
 20
69.227640
 30
0.0
 10
10.832765
 20
69.493982
 30
0.0
  0
SPLINE
  5
234
100
AcDbEntity
  8
graphic
 62
7
100
AcDbSpline
 70
8
 71
3
 72
8
 73
4
 74
0
 40
0
 40
0
 40
0
 40
0
 40
1
 40
1
 40
1
 40
1
 10
10.832765
 20
69.493982
 30
0.0
 10
10.722442
 20
69.760323
 30
0.0
 10
10.462543
 20
69.933983
 30
0.0
 10
10.174257
 20
69.933983
 30
0.0
  0
SPLINE
  5
235
100
AcDbEntity
  8
graphic
 62
7
100
AcDbSpline
 70
8
 71
3
 72
8
 73
4
 74
0
 40
0
 40
0
 40
0
 40
0
 40
1
 40
1
 40
1
 40
1
 10
10.174257
 20
69.933983
 30
0.0
 10
9.985220
 20
69.933983
 30
0.0
 10
9.803926
 20
69.858888
 30
0.0
 10
9.670257
 20
69.725219
 30
0.0
  0
SPLINE
  5
236
100
AcDbEntity
  8
graphic
 62
7
100
AcDbSpline
 70
8
 71
3
 72
8
 73
4
 74
0
 40
0
 40
0
 40
0
 40
0
 40
1
 40
1
 40
1
 40
1
 10
9.670257
 20
69.725219
 30
0.0
 10
9.536588
 20
69.591550
 30
0.0
 10
9.461493
 20
69.410256
 30
0.0
 10
9.461493
 20
69.221219
 30
0.0
  0
LINE
  5
237
100
AcDbEntity
  8
graphic
 62
7
100
AcDbLine
 10
9.461493
 20
69.221219
 30
0.0
 11
9.461493
 21
69.221219
 31
0.0
  0
SPLINE
  5
238
100
AcDbEntity
  8
graphic
 62
7
100
AcDbSpline
 70
8
 71
3
 72
8
 73
4
 74
0
 40
0
 40
0
 40
0
 40
0
 40
1
 40
1
 40
1
 40
1
 10
9.443494
 20
78.686737
 30
0.0
 10
9.443494
 20
78.398451
 30
0.0
 10
9.617153
 20
78.138552
 30
0.0
 10
9.883494
 20
78.028230
 30
0.0
  0
SPLINE
  5
239
100
AcDbEntity
  8
graphic
 62
7
100
AcDbSpline
 70
8
 71
3
 72
8
 73
4
 74
0
 40
0
 40
0
 40
0
 40
0
 40
1
 40
1
 40
1
 40
1
 10
9.883494
 20
78.028230
 30
0.0
 10
10.149836
 20
77.917907
 30
0.0
 10
10.456408
 20
77.978888
 30
0.0
 10
10.660257
 20
78.182737
 30
0.0
  0
SPLINE
  5
23a
100
AcDbEntity
  8
graphic
 62
7
100
AcDbSpline
 70
8
 71
3
 72
8
 73
4
 74
0
 40
0
 40
0
 40
0
 40
0
 40
1
 40
1
 40
1
 40
1
 10
10.660257
 20
78.182737
 30
0.0
 10
10.864106
 20
78.386586
 30
0.0
 10
10.925087
 20
78.693159
 30
0.0
 10
10.814765
 20
78.959500
 30
0.0
  0
SPLINE
  5
23b
100
AcDbEntity
  8
graphic
 62
7
100
AcDbSpline
 70
8
 71
3
 72
8
 73
4
 74
0
 40
0
 40
0
 40
0
 40
0
 40
1
 40
1
 40
1
 40
1
 10
10.814765
 20
78.959500
 30
0.0
 10
10.704443
 20
79.225842
 30
0.0
 10
10.444543
 20
79.399501
 30
0.0
 10
10.156257
 20
79.399501
 30
0.0
  0
SPLINE
  5
23c
100
AcDbEntity
  8
graphic
 62
7
100
AcDbSpline
 70
8
 71
3
 72
8
 73
4
 74
0
 40
0
 40
0
 40
0
 40
0
 40
1
 40
1
 40
1
 40
1
 10
10.156257
 20
79.399501
 30
0.0
 10
9.967221
 20
79.399501
 30
0.0
 10
9.785926
 20
79.324407
 30
0.0
 10
9.652257
 20
79.190737
 30
0.0
  0
SPLINE
  5
23d
100
AcDbEntity
  8
graphic
 62
7
100
AcDbSpline
 70
8
 71
3
 72
8
 73
4
 74
0
 40
0
 40
0
 40
0
 40
0
 40
1
 40
1
 40
1
 40
1
 10
9.652257
 20
79.190737
 30
0.0
 10
9.518588
 20
79.057068
 30
0.0
 10
9.443494
 20
78.875774
 30
0.0
 10
9.443494
 20
78.686737
 30
0.0
  0
LINE
  5
23e
100
AcDbEntity
  8
graphic
 62
7
100
AcDbLine
 10
9.443494
 20
78.686737
 30
0.0
 11
9.443494
 21
78.686737
 31
0.0
  0
LINE
  5
23f
100
AcDbEntity
  8
graphic
 62
7
100
AcDbLine
 10
9.817073
 20
69.838027
 30
0.0
 11
5.088736
 21
77.960665
 31
0.0
  0
LINE
  5
240
100
AcDbEntity
  8
text
 62
7
100
AcDbLine
 10
5.802503
 20
120.020016
 30
0.0
 11
5.091301
 21
118.151700
 31
0.0
  0
LINE
  5
241
100
AcDbEntity
  8
text
 62
7
100
AcDbLine
 10
5.802503
 20
120.020016
 30
0.0
 11
6.513705
 21
118.151700
 31
0.0
  0
LINE
  5
242
100
AcDbEntity
  8
text
 62
7
100
AcDbLine
 10
5.356591
 20
118.772591
 30
0.0
 11
6.248415
 21
118.772591
 31
0.0
  0
LINE
  5
243
100
AcDbEntity
  8
text
 62
7
100
AcDbLine
 10
6.956791
 20
120.020016
 30
0.0
 11
6.956791
 21
118.151700
 31
0.0
  0
LINE
  5
244
100
AcDbEntity
  8
text
 62
7
100
AcDbLine
 10
6.956791
 20
120.020016
 30
0.0
 11
8.204216
 21
118.151700
 31
0.0
  0
LINE
  5
245
100
AcDbEntity
  8
text
 62
7
100
AcDbLine
 10
8.204216
 20
120.020016
 30
0.0
 11
8.204216
 21
118.151700
 31
0.0
  0
LINE
  5
246
100
AcDbEntity
  8
text
 62
7
100
AcDbLine
 10
9.358513
 20
120.020016
 30
0.0
 11
8.647311
 21
118.151700
 31
0.0
  0
LINE
  5
247
100
AcDbEntity
  8
text
 62
7
100
AcDbLine
 10
9.358513
 20
120.020016
 30
0.0
 11
10.069715
 21
118.151700
 31
0.0
  0
LINE
  5
248
100
AcDbEntity
  8
text
 62
7
100
AcDbLine
 10
8.912601
 20
118.772591
 30
0.0
 11
9.804425
 21
118.772591
 31
0.0
  0
LINE
  5
249
100
AcDbEntity
  8
text
 62
7
100
AcDbLine
 10
10.512801
 20
120.020016
 30
0.0
 11
10.512801
 21
118.151700
 31
0.0
  0
LINE
  5
24a
100
AcDbEntity
  8
text
 62
7
100
AcDbLine
 10
10.512801
 20
118.151700
 30
0.0
 11
11.579604
 21
118.151700
 31
0.0
  0
LINE
  5
24b
100
AcDbEntity
  8
text
 62
7
100
AcDbLine
 10
12.471433
 20
120.020016
 30
0.0
 11
12.293632
 21
119.929705
 31
0.0
  0
LINE
  5
24c
100
AcDbEntity
  8
text
 62
7
100
AcDbLine
 10
12.293632
 20
119.929705
 30
0.0
 11
12.115832
 21
119.751904
 31
0.0
  0
LINE
  5
24d
100
AcDbEntity
  8
text
 62
7
100
AcDbLine
 10
12.115832
 20
119.751904
 30
0.0
 11
12.025521
 21
119.574104
 31
0.0
  0
LINE
  5
24e
100
AcDbEntity
  8
text
 62
7
100
AcDbLine
 10
12.025521
 20
119.574104
 30
0.0
 11
11.938031
 21
119.308814
 31
0.0
  0
LINE
  5
24f
100
AcDbEntity
  8
text
 62
7
100
AcDbLine
 10
11.938031
 20
119.308814
 30
0.0
 11
11.938031
 21
118.862902
 31
0.0
  0
LINE
  5
250
100
AcDbEntity
  8
text
 62
7
100
AcDbLine
 10
11.938031
 20
118.862902
 30
0.0
 11
12.025521
 21
118.597612
 31
0.0
  0
LINE
  5
251
100
AcDbEntity
  8
text
 62
7
100
AcDbLine
 10
12.025521
 20
118.597612
 30
0.0
 11
12.115832
 21
118.418401
 31
0.0
  0
LINE
  5
252
100
AcDbEntity
  8
text
 62
7
100
AcDbLine
 10
12.115832
 20
118.418401
 30
0.0
 11
12.293632
 21
118.240600
 31
0.0
  0
LINE
  5
253
100
AcDbEntity
  8
text
 62
7
100
AcDbLine
 10
12.293632
 20
118.240600
 30
0.0
 11
12.471433
 21
118.151700
 31
0.0
  0
LINE
  5
254
100
AcDbEntity
  8
text
 62
7
100
AcDbLine
 10
12.471433
 20
118.151700
 30
0.0
 11
12.827034
 21
118.151700
 31
0.0
  0
LINE
  5
255
100
AcDbEntity
  8
text
 62
7
100
AcDbLine
 10
12.827034
 20
118.151700
 30
0.0
 11
13.004834
 21
118.240600
 31
0.0
  0
LINE
  5
256
100
AcDbEntity
  8
text
 62
7
100
AcDbLine
 10
13.004834
 20
118.240600
 30
0.0
 11
13.182635
 21
118.418401
 31
0.0
  0
LINE
  5
257
100
AcDbEntity
  8
text
 62
7
100
AcDbLine
 10
13.182635
 20
118.418401
 30
0.0
 11
13.272946
 21
118.597612
 31
0.0
  0
LINE
  5
258
100
AcDbEntity
  8
text
 62
7
100
AcDbLine
 10
13.272946
 20
118.597612
 30
0.0
 11
13.360435
 21
118.862902
 31
0.0
  0
LINE
  5
259
100
AcDbEntity
  8
text
 62
7
100
AcDbLine
 10
13.360435
 20
118.862902
 30
0.0
 11
13.360435
 21
119.308814
 31
0.0
  0
LINE
  5
25a
100
AcDbEntity
  8
text
 62
7
100
AcDbLine
 10
13.360435
 20
119.308814
 30
0.0
 11
13.272946
 21
119.574104
 31
0.0
  0
LINE
  5
25b
100
AcDbEntity
  8
text
 62
7
100
AcDbLine
 10
13.272946
 20
119.574104
 30
0.0
 11
13.182635
 21
119.751904
 31
0.0
  0
LINE
  5
25c
100
AcDbEntity
  8
text
 62
7
100
AcDbLine
 10
13.182635
 20
119.751904
 30
0.0
 11
13.004834
 21
119.929705
 31
0.0
  0
LINE
  5
25d
100
AcDbEntity
  8
text
 62
7
100
AcDbLine
 10
13.004834
 20
119.929705
 30
0.0
 11
12.827034
 21
120.020016
 31
0.0
  0
LINE
  5
25e
100
AcDbEntity
  8
text
 62
7
100
AcDbLine
 10
12.827034
 20
120.020016
 30
0.0
 11
12.471433
 21
120.020016
 31
0.0
  0
LINE
  5
25f
100
AcDbEntity
  8
text
 62
7
100
AcDbLine
 10
15.228746
 20
119.574104
 30
0.0
 11
15.138435
 21
119.751904
 31
0.0
  0
LINE
  5
260
100
AcDbEntity
  8
text
 62
7
100
AcDbLine
 10
15.138435
 20
119.751904
 30
0.0
 11
14.960634
 21
119.929705
 31
0.0
  0
LINE
  5
261
100
AcDbEntity
  8
text
 62
7
100
AcDbLine
 10
14.960634
 20
119.929705
 30
0.0
 11
14.782834
 21
120.020016
 31
0.0
  0
LINE
  5
262
100
AcDbEntity
  8
text
 62
7
100
AcDbLine
 10
14.782834
 20
120.020016
 30
0.0
 11
14.427233
 21
120.020016
 31
0.0
  0
LINE
  5
263
100
AcDbEntity
  8
text
 62
7
100
AcDbLine
 10
14.427233
 20
120.020016
 30
0.0
 11
14.249432
 21
119.929705
 31
0.0
  0
LINE
  5
264
100
AcDbEntity
  8
text
 62
7
100
AcDbLine
 10
14.249432
 20
119.929705
 30
0.0
 11
14.071632
 21
119.751904
 31
0.0
  0
LINE
  5
265
100
AcDbEntity
  8
text
 62
7
100
AcDbLine
 10
14.071632
 20
119.751904
 30
0.0
 11
13.981321
 21
119.574104
 31
0.0
  0
LINE
  5
266
100
AcDbEntity
  8
text
 62
7
100
AcDbLine
 10
13.981321
 20
119.574104
 30
0.0
 11
13.893831
 21
119.308814
 31
0.0
  0
LINE
  5
267
100
AcDbEntity
  8
text
 62
7
100
AcDbLine
 10
13.893831
 20
119.308814
 30
0.0
 11
13.893831
 21
118.862902
 31
0.0
  0
LINE
  5
268
100
AcDbEntity
  8
text
 62
7
100
AcDbLine
 10
13.893831
 20
118.862902
 30
0.0
 11
13.981321
 21
118.597612
 31
0.0
  0
LINE
  5
269
100
AcDbEntity
  8
text
 62
7
100
AcDbLine
 10
13.981321
 20
118.597612
 30
0.0
 11
14.071632
 21
118.418401
 31
0.0
  0
LINE
  5
26a
100
AcDbEntity
  8
text
 62
7
100
AcDbLine
 10
14.071632
 20
118.418401
 30
0.0
 11
14.249432
 21
118.240600
 31
0.0
  0
LINE
  5
26b
100
AcDbEntity
  8
text
 62
7
100
AcDbLine
 10
14.249432
 20
118.240600
 30
0.0
 11
14.427233
 21
118.151700
 31
0.0
  0
LINE
  5
26c
100
AcDbEntity
  8
text
 62
7
100
AcDbLine
 10
14.427233
 20
118.151700
 30
0.0
 11
14.782834
 21
118.151700
 31
0.0
  0
LINE
  5
26d
100
AcDbEntity
  8
text
 62
7
100
AcDbLine
 10
14.782834
 20
118.151700
 30
0.0
 11
14.960634
 21
118.240600
 31
0.0
  0
LINE
  5
26e
100
AcDbEntity
  8
text
 62
7
100
AcDbLine
 10
14.960634
 20
118.240600
 30
0.0
 11
15.138435
 21
118.418401
 31
0.0
  0
LINE
  5
26f
100
AcDbEntity
  8
text
 62
7
100
AcDbLine
 10
15.138435
 20
118.418401
 30
0.0
 11
15.228746
 21
118.597612
 31
0.0
  0
LINE
  5
270
100
AcDbEntity
  8
text
 62
7
100
AcDbLine
 10
15.228746
 20
118.597612
 30
0.0
 11
15.228746
 21
118.862902
 31
0.0
  0
LINE
  5
271
100
AcDbEntity
  8
text
 62
7
100
AcDbLine
 10
14.782834
 20
118.862902
 30
0.0
 11
15.228746
 21
118.862902
 31
0.0
  0
LINE
  5
272
100
AcDbEntity
  8
text
 62
7
100
AcDbLine
 10
6.780405
 20
117.005004
 30
0.0
 11
6.602604
 21
117.182805
 31
0.0
  0
LINE
  5
273
100
AcDbEntity
  8
text
 62
7
100
AcDbLine
 10
6.602604
 20
117.182805
 30
0.0
 11
6.334493
 21
117.273116
 31
0.0
  0
LINE
  5
274
100
AcDbEntity
  8
text
 62
7
100
AcDbLine
 10
6.334493
 20
117.273116
 30
0.0
 11
5.978892
 21
117.273116
 31
0.0
  0
LINE
  5
275
100
AcDbEntity
  8
text
 62
7
100
AcDbLine
 10
5.978892
 20
117.273116
 30
0.0
 11
5.713602
 21
117.182805
 31
0.0
  0
LINE
  5
276
100
AcDbEntity
  8
text
 62
7
100
AcDbLine
 10
5.713602
 20
117.182805
 30
0.0
 11
5.535801
 21
117.005004
 31
0.0
  0
LINE
  5
277
100
AcDbEntity
  8
text
 62
7
100
AcDbLine
 10
5.535801
 20
117.005004
 30
0.0
 11
5.535801
 21
116.827204
 31
0.0
  0
LINE
  5
278
100
AcDbEntity
  8
text
 62
7
100
AcDbLine
 10
5.535801
 20
116.827204
 30
0.0
 11
5.623291
 21
116.649403
 31
0.0
  0
LINE
  5
279
100
AcDbEntity
  8
text
 62
7
100
AcDbLine
 10
5.623291
 20
116.649403
 30
0.0
 11
5.713602
 21
116.561914
 31
0.0
  0
LINE
  5
27a
100
AcDbEntity
  8
text
 62
7
100
AcDbLine
 10
5.713602
 20
116.561914
 30
0.0
 11
5.891402
 21
116.471603
 31
0.0
  0
LINE
  5
27b
100
AcDbEntity
  8
text
 62
7
100
AcDbLine
 10
5.891402
 20
116.471603
 30
0.0
 11
6.424804
 21
116.293802
 31
0.0
  0
LINE
  5
27c
100
AcDbEntity
  8
text
 62
7
100
AcDbLine
 10
6.424804
 20
116.293802
 30
0.0
 11
6.602604
 21
116.206313
 31
0.0
  0
LINE
  5
27d
100
AcDbEntity
  8
text
 62
7
100
AcDbLine
 10
6.602604
 20
116.206313
 30
0.0
 11
6.690094
 21
116.116002
 31
0.0
  0
LINE
  5
27e
100
AcDbEntity
  8
text
 62
7
100
AcDbLine
 10
6.690094
 20
116.116002
 30
0.0
 11
6.780405
 21
115.938201
 31
0.0
  0
LINE
  5
27f
100
AcDbEntity
  8
text
 62
7
100
AcDbLine
 10
6.780405
 20
115.938201
 30
0.0
 11
6.780405
 21
115.671501
 31
0.0
  0
LINE
  5
280
100
AcDbEntity
  8
text
 62
7
100
AcDbLine
 10
6.780405
 20
115.671501
 30
0.0
 11
6.602604
 21
115.493700
 31
0.0
  0
LINE
  5
281
100
AcDbEntity
  8
text
 62
7
100
AcDbLine
 10
6.602604
 20
115.493700
 30
0.0
 11
6.334493
 21
115.404800
 31
0.0
  0
LINE
  5
282
100
AcDbEntity
  8
text
 62
7
100
AcDbLine
 10
6.334493
 20
115.404800
 30
0.0
 11
5.978892
 21
115.404800
 31
0.0
  0
LINE
  5
283
100
AcDbEntity
  8
text
 62
7
100
AcDbLine
 10
5.978892
 20
115.404800
 30
0.0
 11
5.713602
 21
115.493700
 31
0.0
  0
LINE
  5
284
100
AcDbEntity
  8
text
 62
7
100
AcDbLine
 10
5.713602
 20
115.493700
 30
0.0
 11
5.535801
 21
115.671501
 31
0.0
  0
LINE
  5
285
100
AcDbEntity
  8
text
 62
7
100
AcDbLine
 10
7.226312
 20
117.273116
 30
0.0
 11
7.669402
 21
115.404800
 31
0.0
  0
LINE
  5
286
100
AcDbEntity
  8
text
 62
7
100
AcDbLine
 10
8.112493
 20
117.273116
 30
0.0
 11
7.669402
 21
115.404800
 31
0.0
  0
LINE
  5
287
100
AcDbEntity
  8
text
 62
7
100
AcDbLine
 10
8.112493
 20
117.273116
 30
0.0
 11
8.558405
 21
115.404800
 31
0.0
  0
LINE
  5
288
100
AcDbEntity
  8
text
 62
7
100
AcDbLine
 10
9.004317
 20
117.273116
 30
0.0
 11
8.558405
 21
115.404800
 31
0.0
  0
LINE
  5
289
100
AcDbEntity
  8
text
 62
7
100
AcDbLine
 10
9.534901
 20
117.273116
 30
0.0
 11
9.534901
 21
115.404800
 31
0.0
  0
LINE
  5
28a
100
AcDbEntity
  8
text
 62
7
100
AcDbLine
 10
10.601702
 20
117.273116
 30
0.0
 11
10.601702
 21
115.404800
 31
0.0
  0
LINE
  5
28b
100
AcDbEntity
  8
text
 62
7
100
AcDbLine
 10
9.980811
 20
117.273116
 30
0.0
 11
11.225414
 21
117.273116
 31
0.0
  0
LINE
  5
28c
100
AcDbEntity
  8
text
 62
7
100
AcDbLine
 10
12.915936
 20
116.827204
 30
0.0
 11
12.825625
 21
117.005004
 31
0.0
  0
LINE
  5
28d
100
AcDbEntity
  8
text
 62
7
100
AcDbLine
 10
12.825625
 20
117.005004
 30
0.0
 11
12.647824
 21
117.182805
 31
0.0
  0
LINE
  5
28e
100
AcDbEntity
  8
text
 62
7
100
AcDbLine
 10
12.647824
 20
117.182805
 30
0.0
 11
12.470024
 21
117.273116
 31
0.0
  0
LINE
  5
28f
100
AcDbEntity
  8
text
 62
7
100
AcDbLine
 10
12.470024
 20
117.273116
 30
0.0
 11
12.114423
 21
117.273116
 31
0.0
  0
LINE
  5
290
100
AcDbEntity
  8
text
 62
7
100
AcDbLine
 10
12.114423
 20
117.273116
 30
0.0
 11
11.936622
 21
117.182805
 31
0.0
  0
LINE
  5
291
100
AcDbEntity
  8
text
 62
7
100
AcDbLine
 10
11.936622
 20
117.182805
 30
0.0
 11
11.758822
 21
117.005004
 31
0.0
  0
LINE
  5
292
100
AcDbEntity
  8
text
 62
7
100
AcDbLine
 10
11.758822
 20
117.005004
 30
0.0
 11
11.668511
 21
116.827204
 31
0.0
  0
LINE
  5
293
100
AcDbEntity
  8
text
 62
7
100
AcDbLine
 10
11.668511
 20
116.827204
 30
0.0
 11
11.581021
 21
116.561914
 31
0.0
  0
LINE
  5
294
100
AcDbEntity
  8
text
 62
7
100
AcDbLine
 10
11.581021
 20
116.561914
 30
0.0
 11
11.581021
 21
116.116002
 31
0.0
  0
LINE
  5
295
100
AcDbEntity
  8
text
 62
7
100
AcDbLine
 10
11.581021
 20
116.116002
 30
0.0
 11
11.668511
 21
115.850712
 31
0.0
  0
LINE
  5
296
100
AcDbEntity
  8
text
 62
7
100
AcDbLine
 10
11.668511
 20
115.850712
 30
0.0
 11
11.758822
 21
115.671501
 31
0.0
  0
LINE
  5
297
100
AcDbEntity
  8
text
 62
7
100
AcDbLine
 10
11.758822
 20
115.671501
 30
0.0
 11
11.936622
 21
115.493700
 31
0.0
  0
LINE
  5
298
100
AcDbEntity
  8
text
 62
7
100
AcDbLine
 10
11.936622
 20
115.493700
 30
0.0
 11
12.114423
 21
115.404800
 31
0.0
  0
LINE
  5
299
100
AcDbEntity
  8
text
 62
7
100
AcDbLine
 10
12.114423
 20
115.404800
 30
0.0
 11
12.470024
 21
115.404800
 31
0.0
  0
LINE
  5
29a
100
AcDbEntity
  8
text
 62
7
100
AcDbLine
 10
12.470024
 20
115.404800
 30
0.0
 11
12.647824
 21
115.493700
 31
0.0
  0
LINE
  5
29b
100
AcDbEntity
  8
text
 62
7
100
AcDbLine
 10
12.647824
 20
115.493700
 30
0.0
 11
12.825625
 21
115.671501
 31
0.0
  0
LINE
  5
29c
100
AcDbEntity
  8
text
 62
7
100
AcDbLine
 10
12.825625
 20
115.671501
 30
0.0
 11
12.915936
 21
115.850712
 31
0.0
  0
LINE
  5
29d
100
AcDbEntity
  8
text
 62
7
100
AcDbLine
 10
13.536821
 20
117.273116
 30
0.0
 11
13.536821
 21
115.404800
 31
0.0
  0
LINE
  5
29e
100
AcDbEntity
  8
text
 62
7
100
AcDbLine
 10
14.784246
 20
117.273116
 30
0.0
 11
14.784246
 21
115.404800
 31
0.0
  0
LINE
  5
29f
100
AcDbEntity
  8
text
 62
7
100
AcDbLine
 10
13.536821
 20
116.381292
 30
0.0
 11
14.784246
 21
116.381292
 31
0.0
  0
LINE
  5
2a0
100
AcDbEntity
  8
text
 62
7
100
AcDbLine
 10
2.831684
 20
28.497791
 30
0.0
 11
4.700000
 21
28.497791
 31
0.0
  0
LINE
  5
2a1
100
AcDbEntity
  8
text
 62
7
100
AcDbLine
 10
2.831684
 20
29.208993
 30
0.0
 11
4.700000
 21
29.208993
 31
0.0
  0
LINE
  5
2a2
100
AcDbEntity
  8
text
 62
7
100
AcDbLine
 10
2.831684
 20
29.208993
 30
0.0
 11
4.700000
 21
30.456418
 31
0.0
  0
LINE
  5
2a3
100
AcDbEntity
  8
text
 62
7
100
AcDbLine
 10
2.831684
 20
30.456418
 30
0.0
 11
4.700000
 21
30.456418
 31
0.0
  0
LINE
  5
2a4
100
AcDbEntity
  8
text
 62
7
100
AcDbLine
 10
2.881684
 20
16.439003
 30
0.0
 11
2.971995
 21
16.261202
 31
0.0
  0
LINE
  5
2a5
100
AcDbEntity
  8
text
 62
7
100
AcDbLine
 10
2.971995
 20
16.261202
 30
0.0
 11
3.149796
 21
16.083402
 31
0.0
  0
LINE
  5
2a6
100
AcDbEntity
  8
text
 62
7
100
AcDbLine
 10
3.149796
 20
16.083402
 30
0.0
 11
3.327596
 21
15.993091
 31
0.0
  0
LINE
  5
2a7
100
AcDbEntity
  8
text
 62
7
100
AcDbLine
 10
3.327596
 20
15.993091
 30
0.0
 11
3.592886
 21
15.905601
 31
0.0
  0
LINE
  5
2a8
100
AcDbEntity
  8
text
 62
7
100
AcDbLine
 10
3.592886
 20
15.905601
 30
0.0
 11
4.038798
 21
15.905601
 31
0.0
  0
LINE
  5
2a9
100
AcDbEntity
  8
text
 62
7
100
AcDbLine
 10
4.038798
 20
15.905601
 30
0.0
 11
4.304088
 21
15.993091
 31
0.0
  0
LINE
  5
2aa
100
AcDbEntity
  8
text
 62
7
100
AcDbLine
 10
4.304088
 20
15.993091
 30
0.0
 11
4.483299
 21
16.083402
 31
0.0
  0
LINE
  5
2ab
100
AcDbEntity
  8
text
 62
7
100
AcDbLine
 10
4.483299
 20
16.083402
 30
0.0
 11
4.661100
 21
16.261202
 31
0.0
  0
LINE
  5
2ac
100
AcDbEntity
  8
text
 62
7
100
AcDbLine
 10
4.661100
 20
16.261202
 30
0.0
 11
4.750000
 21
16.439003
 31
0.0
  0
LINE
  5
2ad
100
AcDbEntity
  8
text
 62
7
100
AcDbLine
 10
4.750000
 20
16.439003
 30
0.0
 11
4.750000
 21
16.794604
 31
0.0
  0
LINE
  5
2ae
100
AcDbEntity
  8
text
 62
7
100
AcDbLine
 10
4.750000
 20
16.794604
 30
0.0
 11
4.661100
 21
16.972404
 31
0.0
  0
LINE
  5
2af
100
AcDbEntity
  8
text
 62
7
100
AcDbLine
 10
4.661100
 20
16.972404
 30
0.0
 11
4.483299
 21
17.150205
 31
0.0
  0
LINE
  5
2b0
100
AcDbEntity
  8
text
 62
7
100
AcDbLine
 10
4.483299
 20
17.150205
 30
0.0
 11
4.304088
 21
17.240516
 31
0.0
  0
LINE
  5
2b1
100
AcDbEntity
  8
text
 62
7
100
AcDbLine
 10
4.304088
 20
17.240516
 30
0.0
 11
4.038798
 21
17.328005
 31
0.0
  0
LINE
  5
2b2
100
AcDbEntity
  8
text
 62
7
100
AcDbLine
 10
4.038798
 20
17.328005
 30
0.0
 11
3.592886
 21
17.328005
 31
0.0
  0
LINE
  5
2b3
100
AcDbEntity
  8
text
 62
7
100
AcDbLine
 10
3.592886
 20
17.328005
 30
0.0
 11
3.327596
 21
17.240516
 31
0.0
  0
LINE
  5
2b4
100
AcDbEntity
  8
text
 62
7
100
AcDbLine
 10
3.327596
 20
17.240516
 30
0.0
 11
3.149796
 21
17.150205
 31
0.0
  0
LINE
  5
2b5
100
AcDbEntity
  8
text
 62
7
100
AcDbLine
 10
3.149796
 20
17.150205
 30
0.0
 11
2.971995
 21
16.972404
 31
0.0
  0
LINE
  5
2b6
100
AcDbEntity
  8
text
 62
7
100
AcDbLine
 10
2.971995
 20
16.972404
 30
0.0
 11
2.881684
 21
16.794604
 31
0.0
  0
LINE
  5
2b7
100
AcDbEntity
  8
text
 62
7
100
AcDbLine
 10
2.881684
 20
16.794604
 30
0.0
 11
2.881684
 21
16.439003
 31
0.0
  0
LINE
  5
2b8
100
AcDbEntity
  8
text
 62
7
100
AcDbLine
 10
2.881684
 20
17.948901
 30
0.0
 11
4.216599
 21
17.948901
 31
0.0
  0
LINE
  5
2b9
100
AcDbEntity
  8
text
 62
7
100
AcDbLine
 10
4.216599
 20
17.948901
 30
0.0
 11
4.483299
 21
18.039212
 31
0.0
  0
LINE
  5
2ba
100
AcDbEntity
  8
text
 62
7
100
AcDbLine
 10
4.483299
 20
18.039212
 30
0.0
 11
4.661100
 21
18.217012
 31
0.0
  0
LINE
  5
2bb
100
AcDbEntity
  8
text
 62
7
100
AcDbLine
 10
4.661100
 20
18.217012
 30
0.0
 11
4.750000
 21
18.485124
 31
0.0
  0
LINE
  5
2bc
100
AcDbEntity
  8
text
 62
7
100
AcDbLine
 10
4.750000
 20
18.485124
 30
0.0
 11
4.750000
 21
18.660103
 31
0.0
  0
LINE
  5
2bd
100
AcDbEntity
  8
text
 62
7
100
AcDbLine
 10
4.750000
 20
18.660103
 30
0.0
 11
4.661100
 21
18.928214
 31
0.0
  0
LINE
  5
2be
100
AcDbEntity
  8
text
 62
7
100
AcDbLine
 10
4.661100
 20
18.928214
 30
0.0
 11
4.483299
 21
19.106015
 31
0.0
  0
LINE
  5
2bf
100
AcDbEntity
  8
text
 62
7
100
AcDbLine
 10
4.483299
 20
19.106015
 30
0.0
 11
4.216599
 21
19.196326
 31
0.0
  0
LINE
  5
2c0
100
AcDbEntity
  8
text
 62
7
100
AcDbLine
 10
4.216599
 20
19.196326
 30
0.0
 11
2.881684
 21
19.196326
 31
0.0
  0
LINE
  5
2c1
100
AcDbEntity
  8
text
 62
7
100
AcDbLine
 10
2.881684
 20
20.260302
 30
0.0
 11
4.750000
 21
20.260302
 31
0.0
  0
LINE
  5
2c2
100
AcDbEntity
  8
text
 62
7
100
AcDbLine
 10
2.881684
 20
19.639411
 30
0.0
 11
2.881684
 21
20.884014
 31
0.0
  0
LINE
  5
2c3
100
AcDbEntity
  8
text
 62
7
100
AcDbLine
 10
3.277596
 20
38.735616
 30
0.0
 11
3.099796
 21
38.645305
 31
0.0
  0
LINE
  5
2c4
100
AcDbEntity
  8
text
 62
7
100
AcDbLine
 10
3.099796
 20
38.645305
 30
0.0
 11
2.921995
 21
38.467504
 31
0.0
  0
LINE
  5
2c5
100
AcDbEntity
  8
text
 62
7
100
AcDbLine
 10
2.921995
 20
38.467504
 30
0.0
 11
2.831684
 21
38.289704
 31
0.0
  0
LINE
  5
2c6
100
AcDbEntity
  8
text
 62
7
100
AcDbLine
 10
2.831684
 20
38.289704
 30
0.0
 11
2.831684
 21
37.934103
 31
0.0
  0
LINE
  5
2c7
100
AcDbEntity
  8
text
 62
7
100
AcDbLine
 10
2.831684
 20
37.934103
 30
0.0
 11
2.921995
 21
37.756302
 31
0.0
  0
LINE
  5
2c8
100
AcDbEntity
  8
text
 62
7
100
AcDbLine
 10
2.921995
 20
37.756302
 30
0.0
 11
3.099796
 21
37.578502
 31
0.0
  0
LINE
  5
2c9
100
AcDbEntity
  8
text
 62
7
100
AcDbLine
 10
3.099796
 20
37.578502
 30
0.0
 11
3.277596
 21
37.488191
 31
0.0
  0
LINE
  5
2ca
100
AcDbEntity
  8
text
 62
7
100
AcDbLine
 10
3.277596
 20
37.488191
 30
0.0
 11
3.542886
 21
37.400701
 31
0.0
  0
LINE
  5
2cb
100
AcDbEntity
  8
text
 62
7
100
AcDbLine
 10
3.542886
 20
37.400701
 30
0.0
 11
3.988798
 21
37.400701
 31
0.0
  0
LINE
  5
2cc
100
AcDbEntity
  8
text
 62
7
100
AcDbLine
 10
3.988798
 20
37.400701
 30
0.0
 11
4.254088
 21
37.488191
 31
0.0
  0
LINE
  5
2cd
100
AcDbEntity
  8
text
 62
7
100
AcDbLine
 10
4.254088
 20
37.488191
 30
0.0
 11
4.433299
 21
37.578502
 31
0.0
  0
LINE
  5
2ce
100
AcDbEntity
  8
text
 62
7
100
AcDbLine
 10
4.433299
 20
37.578502
 30
0.0
 11
4.611100
 21
37.756302
 31
0.0
  0
LINE
  5
2cf
100
AcDbEntity
  8
text
 62
7
100
AcDbLine
 10
4.611100
 20
37.756302
 30
0.0
 11
4.700000
 21
37.934103
 31
0.0
  0
LINE
  5
2d0
100
AcDbEntity
  8
text
 62
7
100
AcDbLine
 10
4.700000
 20
37.934103
 30
0.0
 11
4.700000
 21
38.289704
 31
0.0
  0
LINE
  5
2d1
100
AcDbEntity
  8
text
 62
7
100
AcDbLine
 10
4.700000
 20
38.289704
 30
0.0
 11
4.611100
 21
38.467504
 31
0.0
  0
LINE
  5
2d2
100
AcDbEntity
  8
text
 62
7
100
AcDbLine
 10
4.611100
 20
38.467504
 30
0.0
 11
4.433299
 21
38.645305
 31
0.0
  0
LINE
  5
2d3
100
AcDbEntity
  8
text
 62
7
100
AcDbLine
 10
4.433299
 20
38.645305
 30
0.0
 11
4.254088
 21
38.735616
 31
0.0
  0
LINE
  5
2d4
100
AcDbEntity
  8
text
 62
7
100
AcDbLine
 10
4.254088
 20
38.735616
 30
0.0
 11
3.988798
 21
38.735616
 31
0.0
  0
LINE
  5
2d5
100
AcDbEntity
  8
text
 62
7
100
AcDbLine
 10
3.988798
 20
38.289704
 30
0.0
 11
3.988798
 21
38.735616
 31
0.0
  0
LINE
  5
2d6
100
AcDbEntity
  8
text
 62
7
100
AcDbLine
 10
2.831684
 20
39.802423
 30
0.0
 11
4.700000
 21
39.091221
 31
0.0
  0
LINE
  5
2d7
100
AcDbEntity
  8
text
 62
7
100
AcDbLine
 10
2.831684
 20
39.802423
 30
0.0
 11
4.700000
 21
40.513625
 31
0.0
  0
LINE
  5
2d8
100
AcDbEntity
  8
text
 62
7
100
AcDbLine
 10
4.079109
 20
39.356511
 30
0.0
 11
4.079109
 21
40.248335
 31
0.0
  0
LINE
  5
2d9
100
AcDbEntity
  8
text
 62
7
100
AcDbLine
 10
2.831684
 20
41.312312
 30
0.0
 11
4.700000
 21
41.312312
 31
0.0
  0
LINE
  5
2da
100
AcDbEntity
  8
text
 62
7
100
AcDbLine
 10
2.831684
 20
40.691421
 30
0.0
 11
2.831684
 21
41.936024
 31
0.0
  0
LINE
  5
2db
100
AcDbEntity
  8
text
 62
7
100
AcDbLine
 10
2.831684
 20
42.379111
 30
0.0
 11
4.700000
 21
42.379111
 31
0.0
  0
LINE
  5
2dc
100
AcDbEntity
  8
text
 62
7
100
AcDbLine
 10
2.831684
 20
42.379111
 30
0.0
 11
2.831684
 21
43.536225
 31
0.0
  0
LINE
  5
2dd
100
AcDbEntity
  8
text
 62
7
100
AcDbLine
 10
3.723508
 20
42.379111
 30
0.0
 11
3.723508
 21
43.090313
 31
0.0
  0
LINE
  5
2de
100
AcDbEntity
  8
text
 62
7
100
AcDbLine
 10
4.700000
 20
42.379111
 30
0.0
 11
4.700000
 21
43.536225
 31
0.0
  0
LINE
  5
2df
100
AcDbEntity
  8
text
 62
7
100
AcDbLine
 10
8.427116
 20
101.174704
 30
0.0
 11
8.336805
 21
101.352504
 31
0.0
  0
LINE
  5
2e0
100
AcDbEntity
  8
text
 62
7
100
AcDbLine
 10
8.336805
 20
101.352504
 30
0.0
 11
8.159004
 21
101.530305
 31
0.0
  0
LINE
  5
2e1
100
AcDbEntity
  8
text
 62
7
100
AcDbLine
 10
8.159004
 20
101.530305
 30
0.0
 11
7.981204
 21
101.620616
 31
0.0
  0
LINE
  5
2e2
100
AcDbEntity
  8
text
 62
7
100
AcDbLine
 10
7.981204
 20
101.620616
 30
0.0
 11
7.625603
 21
101.620616
 31
0.0
  0
LINE
  5
2e3
100
AcDbEntity
  8
text
 62
7
100
AcDbLine
 10
7.625603
 20
101.620616
 30
0.0
 11
7.447802
 21
101.530305
 31
0.0
  0
LINE
  5
2e4
100
AcDbEntity
  8
text
 62
7
100
AcDbLine
 10
7.447802
 20
101.530305
 30
0.0
 11
7.270002
 21
101.352504
 31
0.0
  0
LINE
  5
2e5
100
AcDbEntity
  8
text
 62
7
100
AcDbLine
 10
7.270002
 20
101.352504
 30
0.0
 11
7.179691
 21
101.174704
 31
0.0
  0
LINE
  5
2e6
100
AcDbEntity
  8
text
 62
7
100
AcDbLine
 10
7.179691
 20
101.174704
 30
0.0
 11
7.092201
 21
100.909414
 31
0.0
  0
LINE
  5
2e7
100
AcDbEntity
  8
text
 62
7
100
AcDbLine
 10
7.092201
 20
100.909414
 30
0.0
 11
7.092201
 21
100.463502
 31
0.0
  0
LINE
  5
2e8
100
AcDbEntity
  8
text
 62
7
100
AcDbLine
 10
7.092201
 20
100.463502
 30
0.0
 11
7.179691
 21
100.198212
 31
0.0
  0
LINE
  5
2e9
100
AcDbEntity
  8
text
 62
7
100
AcDbLine
 10
7.179691
 20
100.198212
 30
0.0
 11
7.270002
 21
100.019001
 31
0.0
  0
LINE
  5
2ea
100
AcDbEntity
  8
text
 62
7
100
AcDbLine
 10
7.270002
 20
100.019001
 30
0.0
 11
7.447802
 21
99.841200
 31
0.0
  0
LINE
  5
2eb
100
AcDbEntity
  8
text
 62
7
100
AcDbLine
 10
7.447802
 20
99.841200
 30
0.0
 11
7.625603
 21
99.752300
 31
0.0
  0
LINE
  5
2ec
100
AcDbEntity
  8
text
 62
7
100
AcDbLine
 10
7.625603
 20
99.752300
 30
0.0
 11
7.981204
 21
99.752300
 31
0.0
  0
LINE
  5
2ed
100
AcDbEntity
  8
text
 62
7
100
AcDbLine
 10
7.981204
 20
99.752300
 30
0.0
 11
8.159004
 21
99.841200
 31
0.0
  0
LINE
  5
2ee
100
AcDbEntity
  8
text
 62
7
100
AcDbLine
 10
8.159004
 20
99.841200
 30
0.0
 11
8.336805
 21
100.019001
 31
0.0
  0
LINE
  5
2ef
100
AcDbEntity
  8
text
 62
7
100
AcDbLine
 10
8.336805
 20
100.019001
 30
0.0
 11
8.427116
 21
100.198212
 31
0.0
  0
LINE
  5
2f0
100
AcDbEntity
  8
text
 62
7
100
AcDbLine
 10
8.427116
 20
100.198212
 30
0.0
 11
8.427116
 21
100.463502
 31
0.0
  0
LINE
  5
2f1
100
AcDbEntity
  8
text
 62
7
100
AcDbLine
 10
7.981204
 20
100.463502
 30
0.0
 11
8.427116
 21
100.463502
 31
0.0
  0
LINE
  5
2f2
100
AcDbEntity
  8
text
 62
7
100
AcDbLine
 10
9.493923
 20
101.620616
 30
0.0
 11
8.782721
 21
99.752300
 31
0.0
  0
LINE
  5
2f3
100
AcDbEntity
  8
text
 62
7
100
AcDbLine
 10
9.493923
 20
101.620616
 30
0.0
 11
10.205125
 21
99.752300
 31
0.0
  0
LINE
  5
2f4
100
AcDbEntity
  8
text
 62
7
100
AcDbLine
 10
9.048011
 20
100.373191
 30
0.0
 11
9.939835
 21
100.373191
 31
0.0
  0
LINE
  5
2f5
100
AcDbEntity
  8
text
 62
7
100
AcDbLine
 10
11.003812
 20
101.620616
 30
0.0
 11
11.003812
 21
99.752300
 31
0.0
  0
LINE
  5
2f6
100
AcDbEntity
  8
text
 62
7
100
AcDbLine
 10
10.382921
 20
101.620616
 30
0.0
 11
11.627524
 21
101.620616
 31
0.0
  0
LINE
  5
2f7
100
AcDbEntity
  8
text
 62
7
100
AcDbLine
 10
12.070611
 20
101.620616
 30
0.0
 11
12.070611
 21
99.752300
 31
0.0
  0
LINE
  5
2f8
100
AcDbEntity
  8
text
 62
7
100
AcDbLine
 10
12.070611
 20
101.620616
 30
0.0
 11
13.227725
 21
101.620616
 31
0.0
  0
LINE
  5
2f9
100
AcDbEntity
  8
text
 62
7
100
AcDbLine
 10
12.070611
 20
100.728792
 30
0.0
 11
12.781813
 21
100.728792
 31
0.0
  0
LINE
  5
2fa
100
AcDbEntity
  8
text
 62
7
100
AcDbLine
 10
12.070611
 20
99.752300
 30
0.0
 11
13.227725
 21
99.752300
 31
0.0
  0
LINE
  5
2fb
100
AcDbEntity
  8
text
 62
7
100
AcDbLine
 10
15.249965
 20
37.797368
 30
0.0
 11
15.317698
 21
37.598401
 31
0.0
  0
LINE
  5
2fc
100
AcDbEntity
  8
text
 62
7
100
AcDbLine
 10
15.317698
 20
37.598401
 30
0.0
 11
15.516665
 21
37.462934
 31
0.0
  0
LINE
  5
2fd
100
AcDbEntity
  8
text
 62
7
100
AcDbLine
 10
15.516665
 20
37.462934
 30
0.0
 11
15.851098
 21
37.397317
 31
0.0
  0
LINE
  5
2fe
100
AcDbEntity
  8
text
 62
7
100
AcDbLine
 10
15.851098
 20
37.397317
 30
0.0
 11
16.050065
 21
37.397317
 31
0.0
  0
LINE
  5
2ff
100
AcDbEntity
  8
text
 62
7
100
AcDbLine
 10
16.050065
 20
37.397317
 30
0.0
 11
16.384500
 21
37.462934
 31
0.0
  0
LINE
  5
300
100
AcDbEntity
  8
text
 62
7
100
AcDbLine
 10
16.384500
 20
37.462934
 30
0.0
 11
16.584525
 21
37.598401
 31
0.0
  0
LINE
  5
301
100
AcDbEntity
  8
text
 62
7
100
AcDbLine
 10
16.584525
 20
37.598401
 30
0.0
 11
16.651200
 21
37.797368
 31
0.0
  0
LINE
  5
302
100
AcDbEntity
  8
text
 62
7
100
AcDbLine
 10
16.651200
 20
37.797368
 30
0.0
 11
16.651200
 21
37.930718
 31
0.0
  0
LINE
  5
303
100
AcDbEntity
  8
text
 62
7
100
AcDbLine
 10
16.651200
 20
37.930718
 30
0.0
 11
16.584525
 21
38.131802
 31
0.0
  0
LINE
  5
304
100
AcDbEntity
  8
text
 62
7
100
AcDbLine
 10
16.584525
 20
38.131802
 30
0.0
 11
16.384500
 21
38.263035
 31
0.0
  0
LINE
  5
305
100
AcDbEntity
  8
text
 62
7
100
AcDbLine
 10
16.384500
 20
38.263035
 30
0.0
 11
16.050066
 21
38.330769
 31
0.0
  0
LINE
  5
306
100
AcDbEntity
  8
text
 62
7
100
AcDbLine
 10
16.050066
 20
38.330769
 30
0.0
 11
15.851099
 21
38.330769
 31
0.0
  0
LINE
  5
307
100
AcDbEntity
  8
text
 62
7
100
AcDbLine
 10
15.851099
 20
38.330769
 30
0.0
 11
15.516665
 21
38.263035
 31
0.0
  0
LINE
  5
308
100
AcDbEntity
  8
text
 62
7
100
AcDbLine
 10
15.516665
 20
38.263035
 30
0.0
 11
15.317698
 21
38.131802
 31
0.0
  0
LINE
  5
309
100
AcDbEntity
  8
text
 62
7
100
AcDbLine
 10
15.317698
 20
38.131802
 30
0.0
 11
15.249965
 21
37.930718
 31
0.0
  0
LINE
  5
30a
100
AcDbEntity
  8
text
 62
7
100
AcDbLine
 10
15.249965
 20
37.930718
 30
0.0
 11
15.249965
 21
37.797368
 31
0.0
  0
LINE
  5
30b
100
AcDbEntity
  8
text
 62
7
100
AcDbLine
 10
15.992553
 20
38.809215
 30
0.0
 11
15.992553
 21
39.704749
 31
0.0
  0
LINE
  5
30c
100
AcDbEntity
  8
text
 62
7
100
AcDbLine
 10
15.516665
 20
40.136284
 30
0.0
 11
15.451048
 21
40.267518
 31
0.0
  0
LINE
  5
30d
100
AcDbEntity
  8
text
 62
7
100
AcDbLine
 10
15.451048
 20
40.267518
 30
0.0
 11
15.249964
 21
40.468601
 31
0.0
  0
LINE
  5
30e
100
AcDbEntity
  8
text
 62
7
100
AcDbLine
 10
15.249964
 20
40.468601
 30
0.0
 11
16.651200
 21
40.468601
 31
0.0
  0
LINE
  5
30f
100
AcDbEntity
  8
text
 62
7
100
AcDbLine
 10
15.249964
 20
41.668751
 30
0.0
 11
15.317698
 21
41.469784
 31
0.0
  0
LINE
  5
310
100
AcDbEntity
  8
text
 62
7
100
AcDbLine
 10
15.317698
 20
41.469784
 30
0.0
 11
15.516665
 21
41.334317
 31
0.0
  0
LINE
  5
311
100
AcDbEntity
  8
text
 62
7
100
AcDbLine
 10
15.516665
 20
41.334317
 30
0.0
 11
15.851099
 21
41.268701
 31
0.0
  0
LINE
  5
312
100
AcDbEntity
  8
text
 62
7
100
AcDbLine
 10
15.851099
 20
41.268701
 30
0.0
 11
16.050066
 21
41.268701
 31
0.0
  0
LINE
  5
313
100
AcDbEntity
  8
text
 62
7
100
AcDbLine
 10
16.050066
 20
41.268701
 30
0.0
 11
16.384500
 21
41.334317
 31
0.0
  0
LINE
  5
314
100
AcDbEntity
  8
text
 62
7
100
AcDbLine
 10
16.384500
 20
41.334317
 30
0.0
 11
16.584525
 21
41.469784
 31
0.0
  0
LINE
  5
315
100
AcDbEntity
  8
text
 62
7
100
AcDbLine
 10
16.584525
 20
41.469784
 30
0.0
 11
16.651200
 21
41.668751
 31
0.0
  0
LINE
  5
316
100
AcDbEntity
  8
text
 62
7
100
AcDbLine
 10
16.651200
 20
41.668751
 30
0.0
 11
16.651200
 21
41.802101
 31
0.0
  0
LINE
  5
317
100
AcDbEntity
  8
text
 62
7
100
AcDbLine
 10
16.651200
 20
41.802101
 30
0.0
 11
16.584525
 21
42.003185
 31
0.0
  0
LINE
  5
318
100
AcDbEntity
  8
text
 62
7
100
AcDbLine
 10
16.584525
 20
42.003185
 30
0.0
 11
16.384500
 21
42.134419
 31
0.0
  0
LINE
  5
319
100
AcDbEntity
  8
text
 62
7
100
AcDbLine
 10
16.384500
 20
42.134419
 30
0.0
 11
16.050066
 21
42.202152
 31
0.0
  0
LINE
  5
31a
100
AcDbEntity
  8
text
 62
7
100
AcDbLine
 10
16.050066
 20
42.202152
 30
0.0
 11
15.851099
 21
42.202152
 31
0.0
  0
LINE
  5
31b
100
AcDbEntity
  8
text
 62
7
100
AcDbLine
 10
15.851099
 20
42.202152
 30
0.0
 11
15.516665
 21
42.134419
 31
0.0
  0
LINE
  5
31c
100
AcDbEntity
  8
text
 62
7
100
AcDbLine
 10
15.516665
 20
42.134419
 30
0.0
 11
15.317698
 21
42.003185
 31
0.0
  0
LINE
  5
31d
100
AcDbEntity
  8
text
 62
7
100
AcDbLine
 10
15.317698
 20
42.003185
 30
0.0
 11
15.249964
 21
41.802101
 31
0.0
  0
LINE
  5
31e
100
AcDbEntity
  8
text
 62
7
100
AcDbLine
 10
15.249964
 20
41.802101
 30
0.0
 11
15.249964
 21
41.668751
 31
0.0
  0
LINE
  5
31f
100
AcDbEntity
  8
text
 62
7
100
AcDbLine
 10
15.249964
 20
42.468850
 30
0.0
 11
16.651200
 21
43.002251
 31
0.0
  0
LINE
  5
320
100
AcDbEntity
  8
text
 62
7
100
AcDbLine
 10
15.249964
 20
43.535652
 30
0.0
 11
16.651200
 21
43.002251
 31
0.0
  0
LINE
  5
321
100
AcDbEntity
  8
text
 62
7
100
AcDbLine
 10
16.621490
 20
27.185435
 30
0.0
 11
16.621490
 21
28.145557
 31
0.0
  0
LINE
  5
322
100
AcDbEntity
  8
text
 62
7
100
AcDbLine
 10
15.340481
 20
27.665920
 30
0.0
 11
16.301449
 21
27.665920
 31
0.0
  0
LINE
  5
323
100
AcDbEntity
  8
text
 62
7
100
AcDbLine
 10
15.820965
 20
27.185435
 30
0.0
 11
15.820965
 21
28.145557
 31
0.0
  0
LINE
  5
324
100
AcDbEntity
  8
text
 62
7
100
AcDbLine
 10
15.566965
 20
28.368654
 30
0.0
 11
15.501348
 21
28.499888
 31
0.0
  0
LINE
  5
325
100
AcDbEntity
  8
text
 62
7
100
AcDbLine
 10
15.501348
 20
28.499888
 30
0.0
 11
15.300264
 21
28.700971
 31
0.0
  0
LINE
  5
326
100
AcDbEntity
  8
text
 62
7
100
AcDbLine
 10
15.300264
 20
28.700971
 30
0.0
 11
16.701500
 21
28.700971
 31
0.0
  0
LINE
  5
327
100
AcDbEntity
  8
text
 62
7
100
AcDbLine
 10
15.300264
 20
29.901121
 30
0.0
 11
15.367998
 21
29.702154
 31
0.0
  0
LINE
  5
328
100
AcDbEntity
  8
text
 62
7
100
AcDbLine
 10
15.367998
 20
29.702154
 30
0.0
 11
15.566965
 21
29.566687
 31
0.0
  0
LINE
  5
329
100
AcDbEntity
  8
text
 62
7
100
AcDbLine
 10
15.566965
 20
29.566687
 30
0.0
 11
15.901399
 21
29.501071
 31
0.0
  0
LINE
  5
32a
100
AcDbEntity
  8
text
 62
7
100
AcDbLine
 10
15.901399
 20
29.501071
 30
0.0
 11
16.100366
 21
29.501071
 31
0.0
  0
LINE
  5
32b
100
AcDbEntity
  8
text
 62
7
100
AcDbLine
 10
16.100366
 20
29.501071
 30
0.0
 11
16.434800
 21
29.566687
 31
0.0
  0
LINE
  5
32c
100
AcDbEntity
  8
text
 62
7
100
AcDbLine
 10
16.434800
 20
29.566687
 30
0.0
 11
16.634825
 21
29.702154
 31
0.0
  0
LINE
  5
32d
100
AcDbEntity
  8
text
 62
7
100
AcDbLine
 10
16.634825
 20
29.702154
 30
0.0
 11
16.701500
 21
29.901121
 31
0.0
  0
LINE
  5
32e
100
AcDbEntity
  8
text
 62
7
100
AcDbLine
 10
16.701500
 20
29.901121
 30
0.0
 11
16.701500
 21
30.034471
 31
0.0
  0
LINE
  5
32f
100
AcDbEntity
  8
text
 62
7
100
AcDbLine
 10
16.701500
 20
30.034471
 30
0.0
 11
16.634825
 21
30.235555
 31
0.0
  0
LINE
  5
330
100
AcDbEntity
  8
text
 62
7
100
AcDbLine
 10
16.634825
 20
30.235555
 30
0.0
 11
16.434800
 21
30.366789
 31
0.0
  0
LINE
  5
331
100
AcDbEntity
  8
text
 62
7
100
AcDbLine
 10
16.434800
 20
30.366789
 30
0.0
 11
16.100366
 21
30.434522
 31
0.0
  0
LINE
  5
332
100
AcDbEntity
  8
text
 62
7
100
AcDbLine
 10
16.100366
 20
30.434522
 30
0.0
 11
15.901399
 21
30.434522
 31
0.0
  0
LINE
  5
333
100
AcDbEntity
  8
text
 62
7
100
AcDbLine
 10
15.901399
 20
30.434522
 30
0.0
 11
15.566965
 21
30.366789
 31
0.0
  0
LINE
  5
334
100
AcDbEntity
  8
text
 62
7
100
AcDbLine
 10
15.566965
 20
30.366789
 30
0.0
 11
15.367998
 21
30.235555
 31
0.0
  0
LINE
  5
335
100
AcDbEntity
  8
text
 62
7
100
AcDbLine
 10
15.367998
 20
30.235555
 30
0.0
 11
15.300264
 21
30.034471
 31
0.0
  0
LINE
  5
336
100
AcDbEntity
  8
text
 62
7
100
AcDbLine
 10
15.300264
 20
30.034471
 30
0.0
 11
15.300264
 21
29.901121
 31
0.0
  0
LINE
  5
337
100
AcDbEntity
  8
text
 62
7
100
AcDbLine
 10
15.300264
 20
30.701220
 30
0.0
 11
16.701500
 21
31.234621
 31
0.0
  0
LINE
  5
338
100
AcDbEntity
  8
text
 62
7
100
AcDbLine
 10
15.300264
 20
31.768022
 30
0.0
 11
16.701500
 21
31.234621
 31
0.0
  0
LINE
  5
339
100
AcDbEntity
  8
text
 62
7
100
AcDbLine
 10
1.538091
 20
122.895136
 30
0.0
 11
1.538091
 21
121.026820
 31
0.0
  0
LINE
  5
33a
100
AcDbEntity
  8
text
 62
7
100
AcDbLine
 10
1.538091
 20
122.895136
 30
0.0
 11
2.339604
 21
122.895136
 31
0.0
  0
LINE
  5
33b
100
AcDbEntity
  8
text
 62
7
100
AcDbLine
 10
2.339604
 20
122.895136
 30
0.0
 11
2.604894
 21
122.804825
 31
0.0
  0
LINE
  5
33c
100
AcDbEntity
  8
text
 62
7
100
AcDbLine
 10
2.604894
 20
122.804825
 30
0.0
 11
2.695205
 21
122.714514
 31
0.0
  0
LINE
  5
33d
100
AcDbEntity
  8
text
 62
7
100
AcDbLine
 10
2.695205
 20
122.714514
 30
0.0
 11
2.785516
 21
122.539535
 31
0.0
  0
LINE
  5
33e
100
AcDbEntity
  8
text
 62
7
100
AcDbLine
 10
2.785516
 20
122.539535
 30
0.0
 11
2.785516
 21
122.358913
 31
0.0
  0
LINE
  5
33f
100
AcDbEntity
  8
text
 62
7
100
AcDbLine
 10
2.785516
 20
122.358913
 30
0.0
 11
2.695205
 21
122.183934
 31
0.0
  0
LINE
  5
340
100
AcDbEntity
  8
text
 62
7
100
AcDbLine
 10
2.695205
 20
122.183934
 30
0.0
 11
2.604894
 21
122.093623
 31
0.0
  0
LINE
  5
341
100
AcDbEntity
  8
text
 62
7
100
AcDbLine
 10
2.604894
 20
122.093623
 30
0.0
 11
2.339604
 21
122.003312
 31
0.0
  0
LINE
  5
342
100
AcDbEntity
  8
text
 62
7
100
AcDbLine
 10
2.339604
 20
122.003312
 30
0.0
 11
1.538091
 21
122.003312
 31
0.0
  0
LINE
  5
343
100
AcDbEntity
  8
text
 62
7
100
AcDbLine
 10
2.161803
 20
122.003312
 30
0.0
 11
2.785516
 21
121.026820
 31
0.0
  0
LINE
  5
344
100
AcDbEntity
  8
text
 62
7
100
AcDbLine
 10
3.762012
 20
122.271423
 30
0.0
 11
3.587033
 21
122.183934
 31
0.0
  0
LINE
  5
345
100
AcDbEntity
  8
text
 62
7
100
AcDbLine
 10
3.587033
 20
122.183934
 30
0.0
 11
3.406411
 21
122.003312
 31
0.0
  0
LINE
  5
346
100
AcDbEntity
  8
text
 62
7
100
AcDbLine
 10
3.406411
 20
122.003312
 30
0.0
 11
3.318921
 21
121.738022
 31
0.0
  0
LINE
  5
347
100
AcDbEntity
  8
text
 62
7
100
AcDbLine
 10
3.318921
 20
121.738022
 30
0.0
 11
3.318921
 21
121.560221
 31
0.0
  0
LINE
  5
348
100
AcDbEntity
  8
text
 62
7
100
AcDbLine
 10
3.318921
 20
121.560221
 30
0.0
 11
3.406411
 21
121.293521
 31
0.0
  0
LINE
  5
349
100
AcDbEntity
  8
text
 62
7
100
AcDbLine
 10
3.406411
 20
121.293521
 30
0.0
 11
3.587033
 21
121.115720
 31
0.0
  0
LINE
  5
34a
100
AcDbEntity
  8
text
 62
7
100
AcDbLine
 10
3.587033
 20
121.115720
 30
0.0
 11
3.762012
 21
121.026820
 31
0.0
  0
LINE
  5
34b
100
AcDbEntity
  8
text
 62
7
100
AcDbLine
 10
3.762012
 20
121.026820
 30
0.0
 11
4.030123
 21
121.026820
 31
0.0
  0
LINE
  5
34c
100
AcDbEntity
  8
text
 62
7
100
AcDbLine
 10
4.030123
 20
121.026820
 30
0.0
 11
4.207924
 21
121.115720
 31
0.0
  0
LINE
  5
34d
100
AcDbEntity
  8
text
 62
7
100
AcDbLine
 10
4.207924
 20
121.115720
 30
0.0
 11
4.385724
 21
121.293521
 31
0.0
  0
LINE
  5
34e
100
AcDbEntity
  8
text
 62
7
100
AcDbLine
 10
4.385724
 20
121.293521
 30
0.0
 11
4.473214
 21
121.560221
 31
0.0
  0
LINE
  5
34f
100
AcDbEntity
  8
text
 62
7
100
AcDbLine
 10
4.473214
 20
121.560221
 30
0.0
 11
4.473214
 21
121.738022
 31
0.0
  0
LINE
  5
350
100
AcDbEntity
  8
text
 62
7
100
AcDbLine
 10
4.473214
 20
121.738022
 30
0.0
 11
4.385724
 21
122.003312
 31
0.0
  0
LINE
  5
351
100
AcDbEntity
  8
text
 62
7
100
AcDbLine
 10
4.385724
 20
122.003312
 30
0.0
 11
4.207924
 21
122.183934
 31
0.0
  0
LINE
  5
352
100
AcDbEntity
  8
text
 62
7
100
AcDbLine
 10
4.207924
 20
122.183934
 30
0.0
 11
4.030123
 21
122.271423
 31
0.0
  0
LINE
  5
353
100
AcDbEntity
  8
text
 62
7
100
AcDbLine
 10
4.030123
 20
122.271423
 30
0.0
 11
3.762012
 21
122.271423
 31
0.0
  0
LINE
  5
354
100
AcDbEntity
  8
text
 62
7
100
AcDbLine
 10
5.094101
 20
122.895136
 30
0.0
 11
5.094101
 21
121.026820
 31
0.0
  0
LINE
  5
355
100
AcDbEntity
  8
text
 62
7
100
AcDbLine
 10
5.094101
 20
122.003312
 30
0.0
 11
5.274723
 21
122.183934
 31
0.0
  0
LINE
  5
356
100
AcDbEntity
  8
text
 62
7
100
AcDbLine
 10
5.274723
 20
122.183934
 30
0.0
 11
5.449702
 21
122.271423
 31
0.0
  0
LINE
  5
357
100
AcDbEntity
  8
text
 62
7
100
AcDbLine
 10
5.449702
 20
122.271423
 30
0.0
 11
5.717813
 21
122.271423
 31
0.0
  0
LINE
  5
358
100
AcDbEntity
  8
text
 62
7
100
AcDbLine
 10
5.717813
 20
122.271423
 30
0.0
 11
5.895614
 21
122.183934
 31
0.0
  0
LINE
  5
359
100
AcDbEntity
  8
text
 62
7
100
AcDbLine
 10
5.895614
 20
122.183934
 30
0.0
 11
6.073414
 21
122.003312
 31
0.0
  0
LINE
  5
35a
100
AcDbEntity
  8
text
 62
7
100
AcDbLine
 10
6.073414
 20
122.003312
 30
0.0
 11
6.160904
 21
121.738022
 31
0.0
  0
LINE
  5
35b
100
AcDbEntity
  8
text
 62
7
100
AcDbLine
 10
6.160904
 20
121.738022
 30
0.0
 11
6.160904
 21
121.560221
 31
0.0
  0
LINE
  5
35c
100
AcDbEntity
  8
text
 62
7
100
AcDbLine
 10
6.160904
 20
121.560221
 30
0.0
 11
6.073414
 21
121.293521
 31
0.0
  0
LINE
  5
35d
100
AcDbEntity
  8
text
 62
7
100
AcDbLine
 10
6.073414
 20
121.293521
 30
0.0
 11
5.895614
 21
121.115720
 31
0.0
  0
LINE
  5
35e
100
AcDbEntity
  8
text
 62
7
100
AcDbLine
 10
5.895614
 20
121.115720
 30
0.0
 11
5.717813
 21
121.026820
 31
0.0
  0
LINE
  5
35f
100
AcDbEntity
  8
text
 62
7
100
AcDbLine
 10
5.717813
 20
121.026820
 30
0.0
 11
5.449702
 21
121.026820
 31
0.0
  0
LINE
  5
360
100
AcDbEntity
  8
text
 62
7
100
AcDbLine
 10
5.449702
 20
121.026820
 30
0.0
 11
5.274723
 21
121.115720
 31
0.0
  0
LINE
  5
361
100
AcDbEntity
  8
text
 62
7
100
AcDbLine
 10
5.274723
 20
121.115720
 30
0.0
 11
5.094101
 21
121.293521
 31
0.0
  0
LINE
  5
362
100
AcDbEntity
  8
text
 62
7
100
AcDbLine
 10
7.137392
 20
122.271423
 30
0.0
 11
6.962413
 21
122.183934
 31
0.0
  0
LINE
  5
363
100
AcDbEntity
  8
text
 62
7
100
AcDbLine
 10
6.962413
 20
122.183934
 30
0.0
 11
6.781791
 21
122.003312
 31
0.0
  0
LINE
  5
364
100
AcDbEntity
  8
text
 62
7
100
AcDbLine
 10
6.781791
 20
122.003312
 30
0.0
 11
6.694301
 21
121.738022
 31
0.0
  0
LINE
  5
365
100
AcDbEntity
  8
text
 62
7
100
AcDbLine
 10
6.694301
 20
121.738022
 30
0.0
 11
6.694301
 21
121.560221
 31
0.0
  0
LINE
  5
366
100
AcDbEntity
  8
text
 62
7
100
AcDbLine
 10
6.694301
 20
121.560221
 30
0.0
 11
6.781791
 21
121.293521
 31
0.0
  0
LINE
  5
367
100
AcDbEntity
  8
text
 62
7
100
AcDbLine
 10
6.781791
 20
121.293521
 30
0.0
 11
6.962413
 21
121.115720
 31
0.0
  0
LINE
  5
368
100
AcDbEntity
  8
text
 62
7
100
AcDbLine
 10
6.962413
 20
121.115720
 30
0.0
 11
7.137392
 21
121.026820
 31
0.0
  0
LINE
  5
369
100
AcDbEntity
  8
text
 62
7
100
AcDbLine
 10
7.137392
 20
121.026820
 30
0.0
 11
7.405503
 21
121.026820
 31
0.0
  0
LINE
  5
36a
100
AcDbEntity
  8
text
 62
7
100
AcDbLine
 10
7.405503
 20
121.026820
 30
0.0
 11
7.583304
 21
121.115720
 31
0.0
  0
LINE
  5
36b
100
AcDbEntity
  8
text
 62
7
100
AcDbLine
 10
7.583304
 20
121.115720
 30
0.0
 11
7.761104
 21
121.293521
 31
0.0
  0
LINE
  5
36c
100
AcDbEntity
  8
text
 62
7
100
AcDbLine
 10
7.761104
 20
121.293521
 30
0.0
 11
7.848594
 21
121.560221
 31
0.0
  0
LINE
  5
36d
100
AcDbEntity
  8
text
 62
7
100
AcDbLine
 10
7.848594
 20
121.560221
 30
0.0
 11
7.848594
 21
121.738022
 31
0.0
  0
LINE
  5
36e
100
AcDbEntity
  8
text
 62
7
100
AcDbLine
 10
7.848594
 20
121.738022
 30
0.0
 11
7.761104
 21
122.003312
 31
0.0
  0
LINE
  5
36f
100
AcDbEntity
  8
text
 62
7
100
AcDbLine
 10
7.761104
 20
122.003312
 30
0.0
 11
7.583304
 21
122.183934
 31
0.0
  0
LINE
  5
370
100
AcDbEntity
  8
text
 62
7
100
AcDbLine
 10
7.583304
 20
122.183934
 30
0.0
 11
7.405503
 21
122.271423
 31
0.0
  0
LINE
  5
371
100
AcDbEntity
  8
text
 62
7
100
AcDbLine
 10
7.405503
 20
122.271423
 30
0.0
 11
7.137392
 21
122.271423
 31
0.0
  0
LINE
  5
372
100
AcDbEntity
  8
text
 62
7
100
AcDbLine
 10
8.559802
 20
122.895136
 30
0.0
 11
8.559802
 21
121.382421
 31
0.0
  0
LINE
  5
373
100
AcDbEntity
  8
text
 62
7
100
AcDbLine
 10
8.559802
 20
121.382421
 30
0.0
 11
8.650113
 21
121.115720
 31
0.0
  0
LINE
  5
374
100
AcDbEntity
  8
text
 62
7
100
AcDbLine
 10
8.650113
 20
121.115720
 30
0.0
 11
8.825092
 21
121.026820
 31
0.0
  0
LINE
  5
375
100
AcDbEntity
  8
text
 62
7
100
AcDbLine
 10
8.825092
 20
121.026820
 30
0.0
 11
9.005714
 21
121.026820
 31
0.0
  0
LINE
  5
376
100
AcDbEntity
  8
text
 62
7
100
AcDbLine
 10
8.294512
 20
122.271423
 30
0.0
 11
8.915403
 21
122.271423
 31
0.0
  0
LINE
  5
377
100
AcDbEntity
  8
text
 62
7
100
AcDbLine
 10
9.536291
 20
122.895136
 30
0.0
 11
9.536291
 21
121.026820
 31
0.0
  0
LINE
  5
378
100
AcDbEntity
  8
text
 62
7
100
AcDbLine
 10
9.536291
 20
122.895136
 30
0.0
 11
10.160003
 21
122.895136
 31
0.0
  0
LINE
  5
379
100
AcDbEntity
  8
text
 62
7
100
AcDbLine
 10
10.160003
 20
122.895136
 30
0.0
 11
10.428115
 21
122.804825
 31
0.0
  0
LINE
  5
37a
100
AcDbEntity
  8
text
 62
7
100
AcDbLine
 10
10.428115
 20
122.804825
 30
0.0
 11
10.603094
 21
122.627024
 31
0.0
  0
LINE
  5
37b
100
AcDbEntity
  8
text
 62
7
100
AcDbLine
 10
10.603094
 20
122.627024
 30
0.0
 11
10.693405
 21
122.449224
 31
0.0
  0
LINE
  5
37c
100
AcDbEntity
  8
text
 62
7
100
AcDbLine
 10
10.693405
 20
122.449224
 30
0.0
 11
10.783716
 21
122.183934
 31
0.0
  0
LINE
  5
37d
100
AcDbEntity
  8
text
 62
7
100
AcDbLine
 10
10.783716
 20
122.183934
 30
0.0
 11
10.783716
 21
121.738022
 31
0.0
  0
LINE
  5
37e
100
AcDbEntity
  8
text
 62
7
100
AcDbLine
 10
10.783716
 20
121.738022
 30
0.0
 11
10.693405
 21
121.472732
 31
0.0
  0
LINE
  5
37f
100
AcDbEntity
  8
text
 62
7
100
AcDbLine
 10
10.693405
 20
121.472732
 30
0.0
 11
10.603094
 21
121.293521
 31
0.0
  0
LINE
  5
380
100
AcDbEntity
  8
text
 62
7
100
AcDbLine
 10
10.603094
 20
121.293521
 30
0.0
 11
10.428115
 21
121.115720
 31
0.0
  0
LINE
  5
381
100
AcDbEntity
  8
text
 62
7
100
AcDbLine
 10
10.428115
 20
121.115720
 30
0.0
 11
10.160003
 21
121.026820
 31
0.0
  0
LINE
  5
382
100
AcDbEntity
  8
text
 62
7
100
AcDbLine
 10
10.160003
 20
121.026820
 30
0.0
 11
9.536291
 21
121.026820
 31
0.0
  0
LINE
  5
383
100
AcDbEntity
  8
text
 62
7
100
AcDbLine
 10
11.317121
 20
122.895136
 30
0.0
 11
11.404611
 21
122.804825
 31
0.0
  0
LINE
  5
384
100
AcDbEntity
  8
text
 62
7
100
AcDbLine
 10
11.404611
 20
122.804825
 30
0.0
 11
11.494922
 21
122.895136
 31
0.0
  0
LINE
  5
385
100
AcDbEntity
  8
text
 62
7
100
AcDbLine
 10
11.494922
 20
122.895136
 30
0.0
 11
11.404611
 21
122.982625
 31
0.0
  0
LINE
  5
386
100
AcDbEntity
  8
text
 62
7
100
AcDbLine
 10
11.404611
 20
122.982625
 30
0.0
 11
11.317121
 21
122.895136
 31
0.0
  0
LINE
  5
387
100
AcDbEntity
  8
text
 62
7
100
AcDbLine
 10
11.404611
 20
122.271423
 30
0.0
 11
11.404611
 21
121.026820
 31
0.0
  0
LINE
  5
388
100
AcDbEntity
  8
text
 62
7
100
AcDbLine
 10
13.095104
 20
122.271423
 30
0.0
 11
13.095104
 21
121.026820
 31
0.0
  0
LINE
  5
389
100
AcDbEntity
  8
text
 62
7
100
AcDbLine
 10
13.095104
 20
122.003312
 30
0.0
 11
12.917304
 21
122.183934
 31
0.0
  0
LINE
  5
38a
100
AcDbEntity
  8
text
 62
7
100
AcDbLine
 10
12.917304
 20
122.183934
 30
0.0
 11
12.739503
 21
122.271423
 31
0.0
  0
LINE
  5
38b
100
AcDbEntity
  8
text
 62
7
100
AcDbLine
 10
12.739503
 20
122.271423
 30
0.0
 11
12.471392
 21
122.271423
 31
0.0
  0
LINE
  5
38c
100
AcDbEntity
  8
text
 62
7
100
AcDbLine
 10
12.471392
 20
122.271423
 30
0.0
 11
12.296413
 21
122.183934
 31
0.0
  0
LINE
  5
38d
100
AcDbEntity
  8
text
 62
7
100
AcDbLine
 10
12.296413
 20
122.183934
 30
0.0
 11
12.115791
 21
122.003312
 31
0.0
  0
LINE
  5
38e
100
AcDbEntity
  8
text
 62
7
100
AcDbLine
 10
12.115791
 20
122.003312
 30
0.0
 11
12.028301
 21
121.738022
 31
0.0
  0
LINE
  5
38f
100
AcDbEntity
  8
text
 62
7
100
AcDbLine
 10
12.028301
 20
121.738022
 30
0.0
 11
12.028301
 21
121.560221
 31
0.0
  0
LINE
  5
390
100
AcDbEntity
  8
text
 62
7
100
AcDbLine
 10
12.028301
 20
121.560221
 30
0.0
 11
12.115791
 21
121.293521
 31
0.0
  0
LINE
  5
391
100
AcDbEntity
  8
text
 62
7
100
AcDbLine
 10
12.115791
 20
121.293521
 30
0.0
 11
12.296413
 21
121.115720
 31
0.0
  0
LINE
  5
392
100
AcDbEntity
  8
text
 62
7
100
AcDbLine
 10
12.296413
 20
121.115720
 30
0.0
 11
12.471392
 21
121.026820
 31
0.0
  0
LINE
  5
393
100
AcDbEntity
  8
text
 62
7
100
AcDbLine
 10
12.471392
 20
121.026820
 30
0.0
 11
12.739503
 21
121.026820
 31
0.0
  0
LINE
  5
394
100
AcDbEntity
  8
text
 62
7
100
AcDbLine
 10
12.739503
 20
121.026820
 30
0.0
 11
12.917304
 21
121.115720
 31
0.0
  0
LINE
  5
395
100
AcDbEntity
  8
text
 62
7
100
AcDbLine
 10
12.917304
 20
121.115720
 30
0.0
 11
13.095104
 21
121.293521
 31
0.0
  0
LINE
  5
396
100
AcDbEntity
  8
text
 62
7
100
AcDbLine
 10
13.803491
 20
122.895136
 30
0.0
 11
13.803491
 21
121.026820
 31
0.0
  0
LINE
  5
397
100
AcDbEntity
  8
text
 62
7
100
AcDbLine
 10
14.870292
 20
122.271423
 30
0.0
 11
14.695313
 21
122.183934
 31
0.0
  0
LINE
  5
398
100
AcDbEntity
  8
text
 62
7
100
AcDbLine
 10
14.695313
 20
122.183934
 30
0.0
 11
14.514691
 21
122.003312
 31
0.0
  0
LINE
  5
399
100
AcDbEntity
  8
text
 62
7
100
AcDbLine
 10
14.514691
 20
122.003312
 30
0.0
 11
14.427201
 21
121.738022
 31
0.0
  0
LINE
  5
39a
100
AcDbEntity
  8
text
 62
7
100
AcDbLine
 10
14.427201
 20
121.738022
 30
0.0
 11
14.427201
 21
121.560221
 31
0.0
  0
LINE
  5
39b
100
AcDbEntity
  8
text
 62
7
100
AcDbLine
 10
14.427201
 20
121.560221
 30
0.0
 11
14.514691
 21
121.293521
 31
0.0
  0
LINE
  5
39c
100
AcDbEntity
  8
text
 62
7
100
AcDbLine
 10
14.514691
 20
121.293521
 30
0.0
 11
14.695313
 21
121.115720
 31
0.0
  0
LINE
  5
39d
100
AcDbEntity
  8
text
 62
7
100
AcDbLine
 10
14.695313
 20
121.115720
 30
0.0
 11
14.870292
 21
121.026820
 31
0.0
  0
LINE
  5
39e
100
AcDbEntity
  8
text
 62
7
100
AcDbLine
 10
14.870292
 20
121.026820
 30
0.0
 11
15.138403
 21
121.026820
 31
0.0
  0
LINE
  5
39f
100
AcDbEntity
  8
text
 62
7
100
AcDbLine
 10
15.138403
 20
121.026820
 30
0.0
 11
15.316204
 21
121.115720
 31
0.0
  0
LINE
  5
3a0
100
AcDbEntity
  8
text
 62
7
100
AcDbLine
 10
15.316204
 20
121.115720
 30
0.0
 11
15.494004
 21
121.293521
 31
0.0
  0
LINE
  5
3a1
100
AcDbEntity
  8
text
 62
7
100
AcDbLine
 10
15.494004
 20
121.293521
 30
0.0
 11
15.581494
 21
121.560221
 31
0.0
  0
LINE
  5
3a2
100
AcDbEntity
  8
text
 62
7
100
AcDbLine
 10
15.581494
 20
121.560221
 30
0.0
 11
15.581494
 21
121.738022
 31
0.0
  0
LINE
  5
3a3
100
AcDbEntity
  8
text
 62
7
100
AcDbLine
 10
15.581494
 20
121.738022
 30
0.0
 11
15.494004
 21
122.003312
 31
0.0
  0
LINE
  5
3a4
100
AcDbEntity
  8
text
 62
7
100
AcDbLine
 10
15.494004
 20
122.003312
 30
0.0
 11
15.316204
 21
122.183934
 31
0.0
  0
LINE
  5
3a5
100
AcDbEntity
  8
text
 62
7
100
AcDbLine
 10
15.316204
 20
122.183934
 30
0.0
 11
15.138403
 21
122.271423
 31
0.0
  0
LINE
  5
3a6
100
AcDbEntity
  8
text
 62
7
100
AcDbLine
 10
15.138403
 20
122.271423
 30
0.0
 11
14.870292
 21
122.271423
 31
0.0
  0
LINE
  5
3a7
100
AcDbEntity
  8
text
 62
7
100
AcDbLine
 10
17.181704
 20
122.271423
 30
0.0
 11
17.181704
 21
120.849020
 31
0.0
  0
LINE
  5
3a8
100
AcDbEntity
  8
text
 62
7
100
AcDbLine
 10
17.181704
 20
120.849020
 30
0.0
 11
17.094215
 21
120.580908
 31
0.0
  0
LINE
  5
3a9
100
AcDbEntity
  8
text
 62
7
100
AcDbLine
 10
17.094215
 20
120.580908
 30
0.0
 11
17.003904
 21
120.493419
 31
0.0
  0
LINE
  5
3aa
100
AcDbEntity
  8
text
 62
7
100
AcDbLine
 10
17.003904
 20
120.493419
 30
0.0
 11
16.826103
 21
120.405929
 31
0.0
  0
LINE
  5
3ab
100
AcDbEntity
  8
text
 62
7
100
AcDbLine
 10
16.826103
 20
120.405929
 30
0.0
 11
16.557992
 21
120.405929
 31
0.0
  0
LINE
  5
3ac
100
AcDbEntity
  8
text
 62
7
100
AcDbLine
 10
16.557992
 20
120.405929
 30
0.0
 11
16.383013
 21
120.493419
 31
0.0
  0
LINE
  5
3ad
100
AcDbEntity
  8
text
 62
7
100
AcDbLine
 10
17.181704
 20
122.003312
 30
0.0
 11
17.003904
 21
122.183934
 31
0.0
  0
LINE
  5
3ae
100
AcDbEntity
  8
text
 62
7
100
AcDbLine
 10
17.003904
 20
122.183934
 30
0.0
 11
16.826103
 21
122.271423
 31
0.0
  0
LINE
  5
3af
100
AcDbEntity
  8
text
 62
7
100
AcDbLine
 10
16.826103
 20
122.271423
 30
0.0
 11
16.557992
 21
122.271423
 31
0.0
  0
LINE
  5
3b0
100
AcDbEntity
  8
text
 62
7
100
AcDbLine
 10
16.557992
 20
122.271423
 30
0.0
 11
16.383013
 21
122.183934
 31
0.0
  0
LINE
  5
3b1
100
AcDbEntity
  8
text
 62
7
100
AcDbLine
 10
16.383013
 20
122.183934
 30
0.0
 11
16.202391
 21
122.003312
 31
0.0
  0
LINE
  5
3b2
100
AcDbEntity
  8
text
 62
7
100
AcDbLine
 10
16.202391
 20
122.003312
 30
0.0
 11
16.114901
 21
121.738022
 31
0.0
  0
LINE
  5
3b3
100
AcDbEntity
  8
text
 62
7
100
AcDbLine
 10
16.114901
 20
121.738022
 30
0.0
 11
16.114901
 21
121.560221
 31
0.0
  0
LINE
  5
3b4
100
AcDbEntity
  8
text
 62
7
100
AcDbLine
 10
16.114901
 20
121.560221
 30
0.0
 11
16.202391
 21
121.293521
 31
0.0
  0
LINE
  5
3b5
100
AcDbEntity
  8
text
 62
7
100
AcDbLine
 10
16.202391
 20
121.293521
 30
0.0
 11
16.383013
 21
121.115720
 31
0.0
  0
LINE
  5
3b6
100
AcDbEntity
  8
text
 62
7
100
AcDbLine
 10
16.383013
 20
121.115720
 30
0.0
 11
16.557992
 21
121.026820
 31
0.0
  0
LINE
  5
3b7
100
AcDbEntity
  8
text
 62
7
100
AcDbLine
 10
16.557992
 20
121.026820
 30
0.0
 11
16.826103
 21
121.026820
 31
0.0
  0
LINE
  5
3b8
100
AcDbEntity
  8
text
 62
7
100
AcDbLine
 10
16.826103
 20
121.026820
 30
0.0
 11
17.003904
 21
121.115720
 31
0.0
  0
LINE
  5
3b9
100
AcDbEntity
  8
text
 62
7
100
AcDbLine
 10
17.003904
 20
121.115720
 30
0.0
 11
17.181704
 21
121.293521
 31
0.0
  0
LINE
  5
3ba
100
AcDbEntity
  8
text
 62
7
100
AcDbLine
 10
18.781915
 20
122.003312
 30
0.0
 11
18.691604
 21
122.183934
 31
0.0
  0
LINE
  5
3bb
100
AcDbEntity
  8
text
 62
7
100
AcDbLine
 10
18.691604
 20
122.183934
 30
0.0
 11
18.426314
 21
122.271423
 31
0.0
  0
LINE
  5
3bc
100
AcDbEntity
  8
text
 62
7
100
AcDbLine
 10
18.426314
 20
122.271423
 30
0.0
 11
18.158202
 21
122.271423
 31
0.0
  0
LINE
  5
3bd
100
AcDbEntity
  8
text
 62
7
100
AcDbLine
 10
18.158202
 20
122.271423
 30
0.0
 11
17.890091
 21
122.183934
 31
0.0
  0
LINE
  5
3be
100
AcDbEntity
  8
text
 62
7
100
AcDbLine
 10
17.890091
 20
122.183934
 30
0.0
 11
17.802601
 21
122.003312
 31
0.0
  0
LINE
  5
3bf
100
AcDbEntity
  8
text
 62
7
100
AcDbLine
 10
17.802601
 20
122.003312
 30
0.0
 11
17.890091
 21
121.828333
 31
0.0
  0
LINE
  5
3c0
100
AcDbEntity
  8
text
 62
7
100
AcDbLine
 10
17.890091
 20
121.828333
 30
0.0
 11
18.070713
 21
121.738022
 31
0.0
  0
LINE
  5
3c1
100
AcDbEntity
  8
text
 62
7
100
AcDbLine
 10
18.070713
 20
121.738022
 30
0.0
 11
18.513803
 21
121.647711
 31
0.0
  0
LINE
  5
3c2
100
AcDbEntity
  8
text
 62
7
100
AcDbLine
 10
18.513803
 20
121.647711
 30
0.0
 11
18.691604
 21
121.560221
 31
0.0
  0
LINE
  5
3c3
100
AcDbEntity
  8
text
 62
7
100
AcDbLine
 10
18.691604
 20
121.560221
 30
0.0
 11
18.781915
 21
121.382421
 31
0.0
  0
LINE
  5
3c4
100
AcDbEntity
  8
text
 62
7
100
AcDbLine
 10
18.781915
 20
121.382421
 30
0.0
 11
18.781915
 21
121.293521
 31
0.0
  0
LINE
  5
3c5
100
AcDbEntity
  8
text
 62
7
100
AcDbLine
 10
18.781915
 20
121.293521
 30
0.0
 11
18.691604
 21
121.115720
 31
0.0
  0
LINE
  5
3c6
100
AcDbEntity
  8
text
 62
7
100
AcDbLine
 10
18.691604
 20
121.115720
 30
0.0
 11
18.426314
 21
121.026820
 31
0.0
  0
LINE
  5
3c7
100
AcDbEntity
  8
text
 62
7
100
AcDbLine
 10
18.426314
 20
121.026820
 30
0.0
 11
18.158202
 21
121.026820
 31
0.0
  0
LINE
  5
3c8
100
AcDbEntity
  8
text
 62
7
100
AcDbLine
 10
18.158202
 20
121.026820
 30
0.0
 11
17.890091
 21
121.115720
 31
0.0
  0
LINE
  5
3c9
100
AcDbEntity
  8
text
 62
7
100
AcDbLine
 10
17.890091
 20
121.115720
 30
0.0
 11
17.802601
 21
121.293521
 31
0.0
  0
LINE
  5
3ca
100
AcDbEntity
  8
text
 62
7
100
AcDbLine
 10
16.621190
 20
16.194335
 30
0.0
 11
16.621190
 21
17.154457
 31
0.0
  0
LINE
  5
3cb
100
AcDbEntity
  8
text
 62
7
100
AcDbLine
 10
15.340181
 20
16.674820
 30
0.0
 11
16.301149
 21
16.674820
 31
0.0
  0
LINE
  5
3cc
100
AcDbEntity
  8
text
 62
7
100
AcDbLine
 10
15.820665
 20
16.194335
 30
0.0
 11
15.820665
 21
17.154457
 31
0.0
  0
LINE
  5
3cd
100
AcDbEntity
  8
text
 62
7
100
AcDbLine
 10
15.566665
 20
17.377554
 30
0.0
 11
15.501048
 21
17.508788
 31
0.0
  0
LINE
  5
3ce
100
AcDbEntity
  8
text
 62
7
100
AcDbLine
 10
15.501048
 20
17.508788
 30
0.0
 11
15.299964
 21
17.709871
 31
0.0
  0
LINE
  5
3cf
100
AcDbEntity
  8
text
 62
7
100
AcDbLine
 10
15.299964
 20
17.709871
 30
0.0
 11
16.701200
 21
17.709871
 31
0.0
  0
LINE
  5
3d0
100
AcDbEntity
  8
text
 62
7
100
AcDbLine
 10
15.299964
 20
18.910021
 30
0.0
 11
15.367698
 21
18.711054
 31
0.0
  0
LINE
  5
3d1
100
AcDbEntity
  8
text
 62
7
100
AcDbLine
 10
15.367698
 20
18.711054
 30
0.0
 11
15.566665
 21
18.575587
 31
0.0
  0
LINE
  5
3d2
100
AcDbEntity
  8
text
 62
7
100
AcDbLine
 10
15.566665
 20
18.575587
 30
0.0
 11
15.901099
 21
18.509971
 31
0.0
  0
LINE
  5
3d3
100
AcDbEntity
  8
text
 62
7
100
AcDbLine
 10
15.901099
 20
18.509971
 30
0.0
 11
16.100066
 21
18.509971
 31
0.0
  0
LINE
  5
3d4
100
AcDbEntity
  8
text
 62
7
100
AcDbLine
 10
16.100066
 20
18.509971
 30
0.0
 11
16.434500
 21
18.575587
 31
0.0
  0
LINE
  5
3d5
100
AcDbEntity
  8
text
 62
7
100
AcDbLine
 10
16.434500
 20
18.575587
 30
0.0
 11
16.634525
 21
18.711054
 31
0.0
  0
LINE
  5
3d6
100
AcDbEntity
  8
text
 62
7
100
AcDbLine
 10
16.634525
 20
18.711054
 30
0.0
 11
16.701200
 21
18.910021
 31
0.0
  0
LINE
  5
3d7
100
AcDbEntity
  8
text
 62
7
100
AcDbLine
 10
16.701200
 20
18.910021
 30
0.0
 11
16.701200
 21
19.043371
 31
0.0
  0
LINE
  5
3d8
100
AcDbEntity
  8
text
 62
7
100
AcDbLine
 10
16.701200
 20
19.043371
 30
0.0
 11
16.634525
 21
19.244455
 31
0.0
  0
LINE
  5
3d9
100
AcDbEntity
  8
text
 62
7
100
AcDbLine
 10
16.634525
 20
19.244455
 30
0.0
 11
16.434500
 21
19.375689
 31
0.0
  0
LINE
  5
3da
100
AcDbEntity
  8
text
 62
7
100
AcDbLine
 10
16.434500
 20
19.375689
 30
0.0
 11
16.100066
 21
19.443422
 31
0.0
  0
LINE
  5
3db
100
AcDbEntity
  8
text
 62
7
100
AcDbLine
 10
16.100066
 20
19.443422
 30
0.0
 11
15.901099
 21
19.443422
 31
0.0
  0
LINE
  5
3dc
100
AcDbEntity
  8
text
 62
7
100
AcDbLine
 10
15.901099
 20
19.443422
 30
0.0
 11
15.566665
 21
19.375689
 31
0.0
  0
LINE
  5
3dd
100
AcDbEntity
  8
text
 62
7
100
AcDbLine
 10
15.566665
 20
19.375689
 30
0.0
 11
15.367698
 21
19.244455
 31
0.0
  0
LINE
  5
3de
100
AcDbEntity
  8
text
 62
7
100
AcDbLine
 10
15.367698
 20
19.244455
 30
0.0
 11
15.299964
 21
19.043371
 31
0.0
  0
LINE
  5
3df
100
AcDbEntity
  8
text
 62
7
100
AcDbLine
 10
15.299964
 20
19.043371
 30
0.0
 11
15.299964
 21
18.910021
 31
0.0
  0
LINE
  5
3e0
100
AcDbEntity
  8
text
 62
7
100
AcDbLine
 10
15.299964
 20
19.710120
 30
0.0
 11
16.701200
 21
20.243521
 31
0.0
  0
LINE
  5
3e1
100
AcDbEntity
  8
text
 62
7
100
AcDbLine
 10
15.299964
 20
20.776922
 30
0.0
 11
16.701200
 21
20.243521
 31
0.0
  0
ENDSEC
  0
SECTION
  2
OBJECTS
  0
DICTIONARY
  5
C
330
0
100
AcDbDictionary
  3
ACAD_GROUP
350
D
  3
ACAD_MLINESTYLE
350
17
  0
DICTIONARY
  5
D
330
C
100
AcDbDictionary
  0
DICTIONARY
  5
1A
330
C
100
AcDbDictionary
  0
DICTIONARY
  5
17
330
C
100
AcDbDictionary
  3
STANDARD
350
18
  0
DICTIONARY
  5
19
330
C
100
AcDbDictionary
  0
ENDSEC
  0
EOF
